<?xml version="1.0" encoding="UTF-8" standalone="no"?>
<!DOCTYPE svg PUBLIC "-//W3C//DTD SVG 1.1//EN" "http://www.w3.org/Graphics/SVG/1.1/DTD/svg11.dtd">
<svg width="100%" height="100%" viewBox="0 0 720 720" version="1.1" xmlns="http://www.w3.org/2000/svg" xmlns:xlink="http://www.w3.org/1999/xlink" xml:space="preserve" xmlns:serif="http://www.serif.com/" style="fill-rule:evenodd;clip-rule:evenodd;stroke-linecap:round;stroke-linejoin:round;stroke-miterlimit:1.5;">
    <g transform="matrix(1,0,0,1,-2651.98,0)">
        <g id="Infographic" transform="matrix(0.96,0,0,0.53973,2651.98,0)">
            <rect x="0" y="0" width="750" height="1334" style="fill:none;"/>
            <g transform="matrix(1.04167,0,0,1.85278,-1873.19,13.74)">
                <g transform="matrix(36,0,0,36,1838.26,52.7841)">
                    <path d="M0.205,-0.359L0.55,0L0.625,0L0.625,-0.075L0.326,-0.384L0.602,-0.68L0.602,-0.75L0.532,-0.75L0.205,-0.393L0.205,-0.75L0.095,-0.75L0.095,0L0.205,0L0.205,-0.359Z" style="fill-rule:nonzero;"/>
                </g>
                <g transform="matrix(36,0,0,36,1861.34,52.7841)">
                    <path d="M0.297,0.01C0.456,0.01 0.551,-0.108 0.551,-0.251C0.551,-0.394 0.456,-0.51 0.297,-0.51C0.137,-0.51 0.043,-0.394 0.043,-0.251C0.043,-0.108 0.137,0.01 0.297,0.01ZM0.297,-0.075C0.192,-0.075 0.143,-0.154 0.143,-0.251C0.143,-0.346 0.192,-0.425 0.297,-0.425C0.402,-0.425 0.451,-0.346 0.451,-0.251C0.451,-0.154 0.402,-0.075 0.297,-0.075Z" style="fill-rule:nonzero;"/>
                </g>
                <g transform="matrix(36,0,0,36,1882.43,52.7841)">
                    <path d="M0.015,0L0.052,0C0.159,0 0.201,-0.093 0.205,-0.218L0.211,-0.42L0.375,-0.42L0.375,0L0.475,0L0.475,-0.5L0.123,-0.5L0.116,-0.229C0.113,-0.124 0.089,-0.091 0.026,-0.087L0.015,-0.087L0.015,0Z" style="fill-rule:nonzero;"/>
                </g>
                <g transform="matrix(36,0,0,36,1902.2,52.7841)">
                    <path d="M0.074,0L0.164,0L0.424,-0.352L0.424,0L0.524,0L0.524,-0.5L0.434,-0.5L0.174,-0.149L0.174,-0.5L0.074,-0.5L0.074,0Z" style="fill-rule:nonzero;"/>
                </g>
                <g transform="matrix(36,0,0,36,1923.72,52.7841)">
                    <path d="M0.356,0L0.456,0L0.456,-0.5L0.356,-0.5L0.356,-0.255L0.255,-0.255C0.18,-0.255 0.141,-0.285 0.141,-0.362L0.141,-0.5L0.041,-0.5L0.041,-0.362C0.041,-0.229 0.114,-0.173 0.247,-0.173L0.356,-0.173L0.356,0Z" style="fill-rule:nonzero;"/>
                </g>
                <g transform="matrix(36,0,0,36,1942.8,52.7841)">
                    <path d="M0.303,0.01C0.46,0.01 0.51,-0.072 0.51,-0.072L0.51,-0.137L0.445,-0.137C0.445,-0.137 0.417,-0.076 0.303,-0.076C0.202,-0.076 0.149,-0.138 0.144,-0.236L0.516,-0.236C0.516,-0.236 0.52,-0.259 0.52,-0.29C0.52,-0.416 0.452,-0.51 0.291,-0.51C0.131,-0.51 0.044,-0.394 0.044,-0.251C0.044,-0.098 0.132,0.01 0.303,0.01ZM0.149,-0.311C0.163,-0.377 0.202,-0.425 0.292,-0.425C0.38,-0.425 0.422,-0.376 0.422,-0.311L0.149,-0.311Z" style="fill-rule:nonzero;"/>
                </g>
                <g transform="matrix(36,0,0,36,1963.14,52.7841)">
                    <path d="M0.297,0.01C0.453,0.01 0.489,-0.082 0.489,-0.082L0.489,-0.147L0.424,-0.147C0.424,-0.147 0.408,-0.075 0.297,-0.075C0.192,-0.075 0.143,-0.154 0.143,-0.251C0.143,-0.347 0.192,-0.426 0.297,-0.426C0.403,-0.426 0.423,-0.354 0.423,-0.354L0.488,-0.354L0.488,-0.419C0.488,-0.419 0.454,-0.511 0.297,-0.511C0.137,-0.511 0.043,-0.394 0.043,-0.251C0.043,-0.108 0.127,0.01 0.297,0.01Z" style="fill-rule:nonzero;"/>
                </g>
                <g transform="matrix(36,0,0,36,1982.4,52.7841)">
                    <path d="M0.179,0L0.279,0L0.279,-0.415L0.439,-0.415L0.439,-0.5L0.019,-0.5L0.019,-0.415L0.179,-0.415L0.179,0Z" style="fill-rule:nonzero;"/>
                </g>
                <g transform="matrix(36,0,0,36,1998.89,52.7841)">
                    <path d="M0.074,0L0.306,0C0.417,0 0.494,-0.048 0.494,-0.149C0.494,-0.204 0.46,-0.246 0.399,-0.264C0.446,-0.283 0.474,-0.32 0.474,-0.369C0.474,-0.455 0.401,-0.5 0.295,-0.5L0.074,-0.5L0.074,0ZM0.174,-0.3L0.174,-0.42L0.295,-0.42C0.34,-0.42 0.369,-0.403 0.369,-0.361C0.369,-0.32 0.343,-0.3 0.295,-0.3L0.174,-0.3ZM0.174,-0.08L0.174,-0.22L0.299,-0.22C0.357,-0.22 0.389,-0.197 0.389,-0.15C0.389,-0.1 0.354,-0.08 0.299,-0.08L0.174,-0.08Z" style="fill-rule:nonzero;"/>
                </g>
                <g transform="matrix(36,0,0,36,2018.26,52.7841)">
                    <path d="M0.297,0.01C0.456,0.01 0.551,-0.108 0.551,-0.251C0.551,-0.394 0.456,-0.51 0.297,-0.51C0.137,-0.51 0.043,-0.394 0.043,-0.251C0.043,-0.108 0.137,0.01 0.297,0.01ZM0.297,-0.075C0.192,-0.075 0.143,-0.154 0.143,-0.251C0.143,-0.346 0.192,-0.425 0.297,-0.425C0.402,-0.425 0.451,-0.346 0.451,-0.251C0.451,-0.154 0.402,-0.075 0.297,-0.075Z" style="fill-rule:nonzero;"/>
                </g>
                <g transform="matrix(36,0,0,36,2048.03,52.7841)">
                    <path d="M0.137,0.25L0.51,-0.435L0.51,-0.5L0.445,-0.5L0.272,-0.174L0.096,-0.5L0.026,-0.5L0.026,-0.43L0.218,-0.08L0.067,0.18L0.067,0.25L0.137,0.25Z" style="fill-rule:nonzero;"/>
                </g>
                <g transform="matrix(36,0,0,36,2067,52.7841)">
                    <path d="M0.318,-0.12L0.383,-0.12L0.533,-0.35L0.533,0L0.633,0L0.633,-0.5L0.523,-0.5L0.355,-0.235L0.184,-0.5L0.074,-0.5L0.074,0L0.169,0L0.169,-0.348L0.318,-0.12Z" style="fill-rule:nonzero;"/>
                </g>
                <g transform="matrix(36,0,0,36,2092.46,52.7841)">
                    <path d="M0.303,0.01C0.46,0.01 0.51,-0.072 0.51,-0.072L0.51,-0.137L0.445,-0.137C0.445,-0.137 0.417,-0.076 0.303,-0.076C0.202,-0.076 0.149,-0.138 0.144,-0.236L0.516,-0.236C0.516,-0.236 0.52,-0.259 0.52,-0.29C0.52,-0.416 0.452,-0.51 0.291,-0.51C0.131,-0.51 0.044,-0.394 0.044,-0.251C0.044,-0.098 0.132,0.01 0.303,0.01ZM0.149,-0.311C0.163,-0.377 0.202,-0.425 0.292,-0.425C0.38,-0.425 0.422,-0.376 0.422,-0.311L0.149,-0.311Z" style="fill-rule:nonzero;"/>
                </g>
                <g transform="matrix(36,0,0,36,2112.8,52.7841)">
                    <path d="M0.074,0.25L0.174,0.25L0.174,-0.078C0.212,-0.024 0.271,0.01 0.348,0.01C0.495,0.01 0.582,-0.108 0.582,-0.251C0.582,-0.394 0.495,-0.51 0.348,-0.51C0.271,-0.51 0.211,-0.476 0.173,-0.421L0.164,-0.5L0.074,-0.5L0.074,0.25ZM0.328,-0.075C0.233,-0.075 0.174,-0.154 0.174,-0.251C0.174,-0.347 0.233,-0.425 0.328,-0.425C0.433,-0.425 0.482,-0.347 0.482,-0.251C0.482,-0.154 0.433,-0.075 0.328,-0.075Z" style="fill-rule:nonzero;"/>
                </g>
                <g transform="matrix(36,0,0,36,2135.33,52.7841)">
                    <path d="M0.074,0L0.694,0L0.694,-0.5L0.594,-0.5L0.594,-0.08L0.434,-0.08L0.434,-0.5L0.334,-0.5L0.334,-0.08L0.174,-0.08L0.174,-0.5L0.074,-0.5L0.074,0Z" style="fill-rule:nonzero;"/>
                </g>
                <g transform="matrix(36,0,0,36,2162.98,52.7841)">
                    <path d="M0.074,0L0.164,0L0.424,-0.352L0.424,0L0.524,0L0.524,-0.5L0.434,-0.5L0.174,-0.149L0.174,-0.5L0.074,-0.5L0.074,0Z" style="fill-rule:nonzero;"/>
                </g>
                <g transform="matrix(36,0,0,36,2184.51,52.7841)">
                    <path d="M0.04,0L0.105,0L0.258,-0.189L0.414,0L0.484,0L0.484,-0.07L0.32,-0.252L0.481,-0.435L0.481,-0.5L0.416,-0.5L0.265,-0.316L0.113,-0.5L0.043,-0.5L0.043,-0.43L0.203,-0.254L0.04,-0.065L0.04,0Z" style="fill-rule:nonzero;"/>
                </g>
                <g transform="matrix(36,0,0,36,1838.26,92.7841)">
                    <path d="M0.074,0L0.164,0L0.424,-0.352L0.424,0L0.524,0L0.524,-0.5L0.434,-0.5L0.174,-0.149L0.174,-0.5L0.074,-0.5L0.074,0Z" style="fill-rule:nonzero;"/>
                </g>
                <g transform="matrix(36,0,0,36,1868.93,92.7841)">
                    <path d="M0.074,0L0.306,0C0.417,0 0.494,-0.048 0.494,-0.149C0.494,-0.204 0.46,-0.246 0.399,-0.264C0.446,-0.283 0.474,-0.32 0.474,-0.369C0.474,-0.455 0.401,-0.5 0.295,-0.5L0.074,-0.5L0.074,0ZM0.174,-0.3L0.174,-0.42L0.295,-0.42C0.34,-0.42 0.369,-0.403 0.369,-0.361C0.369,-0.32 0.343,-0.3 0.295,-0.3L0.174,-0.3ZM0.174,-0.08L0.174,-0.22L0.299,-0.22C0.357,-0.22 0.389,-0.197 0.389,-0.15C0.389,-0.1 0.354,-0.08 0.299,-0.08L0.174,-0.08Z" style="fill-rule:nonzero;"/>
                </g>
                <g transform="matrix(36,0,0,36,1888.3,92.7841)">
                    <path d="M0.074,0L0.273,0C0.415,0 0.479,-0.074 0.479,-0.169C0.479,-0.261 0.414,-0.33 0.274,-0.33L0.174,-0.33L0.174,-0.5L0.074,-0.5L0.074,0ZM0.554,0L0.654,0L0.654,-0.5L0.554,-0.5L0.554,0ZM0.174,-0.08L0.174,-0.25L0.266,-0.25C0.335,-0.25 0.374,-0.223 0.374,-0.168C0.374,-0.105 0.332,-0.08 0.266,-0.08L0.174,-0.08Z" style="fill-rule:nonzero;"/>
                </g>
                <g transform="matrix(36,0,0,36,1914.51,92.7841)">
                    <path d="M0.233,0.01C0.367,0.01 0.436,-0.048 0.436,-0.142C0.436,-0.198 0.403,-0.241 0.346,-0.261C0.391,-0.283 0.418,-0.322 0.418,-0.372C0.418,-0.462 0.347,-0.51 0.235,-0.51C0.142,-0.51 0.083,-0.48 0.049,-0.429L0.049,-0.364L0.114,-0.364C0.133,-0.404 0.171,-0.425 0.228,-0.425C0.285,-0.425 0.317,-0.402 0.317,-0.358C0.317,-0.315 0.291,-0.293 0.232,-0.293L0.151,-0.293L0.151,-0.213L0.235,-0.213C0.306,-0.213 0.335,-0.19 0.335,-0.148C0.335,-0.1 0.302,-0.075 0.231,-0.075C0.173,-0.075 0.132,-0.094 0.109,-0.137L0.044,-0.137L0.044,-0.072C0.081,-0.019 0.148,0.01 0.233,0.01Z" style="fill-rule:nonzero;"/>
                </g>
                <g transform="matrix(36,0,0,36,1931.79,92.7841)">
                    <path d="M0.013,0.14L0.103,0.14L0.103,0L0.496,0L0.496,0.14L0.586,0.14L0.586,-0.08L0.506,-0.08L0.506,-0.5L0.135,-0.5L0.117,-0.26C0.11,-0.16 0.095,-0.1 0.067,-0.08L0.013,-0.08L0.013,0.14ZM0.168,-0.08C0.189,-0.119 0.2,-0.173 0.205,-0.243L0.218,-0.42L0.406,-0.42L0.406,-0.08L0.168,-0.08Z" style="fill-rule:nonzero;"/>
                </g>
                <g transform="matrix(36,0,0,36,1953.64,92.7841)">
                    <path d="M0.297,0.01C0.456,0.01 0.551,-0.108 0.551,-0.251C0.551,-0.394 0.456,-0.51 0.297,-0.51C0.137,-0.51 0.043,-0.394 0.043,-0.251C0.043,-0.108 0.137,0.01 0.297,0.01ZM0.297,-0.075C0.192,-0.075 0.143,-0.154 0.143,-0.251C0.143,-0.346 0.192,-0.425 0.297,-0.425C0.402,-0.425 0.451,-0.346 0.451,-0.251C0.451,-0.154 0.402,-0.075 0.297,-0.075Z" style="fill-rule:nonzero;"/>
                </g>
                <g transform="matrix(36,0,0,36,1975.02,92.7841)">
                    <path d="M0.074,0.25L0.174,0.25L0.174,-0.078C0.212,-0.024 0.271,0.01 0.348,0.01C0.495,0.01 0.582,-0.108 0.582,-0.251C0.582,-0.394 0.495,-0.51 0.348,-0.51C0.271,-0.51 0.211,-0.476 0.173,-0.421L0.164,-0.5L0.074,-0.5L0.074,0.25ZM0.328,-0.075C0.233,-0.075 0.174,-0.154 0.174,-0.251C0.174,-0.347 0.233,-0.425 0.328,-0.425C0.433,-0.425 0.482,-0.347 0.482,-0.251C0.482,-0.154 0.433,-0.075 0.328,-0.075Z" style="fill-rule:nonzero;"/>
                </g>
                <g transform="matrix(36,0,0,36,1997.56,92.7841)">
                    <path d="M0.297,0.01C0.456,0.01 0.551,-0.108 0.551,-0.251C0.551,-0.394 0.456,-0.51 0.297,-0.51C0.137,-0.51 0.043,-0.394 0.043,-0.251C0.043,-0.108 0.137,0.01 0.297,0.01ZM0.297,-0.075C0.192,-0.075 0.143,-0.154 0.143,-0.251C0.143,-0.346 0.192,-0.425 0.297,-0.425C0.402,-0.425 0.451,-0.346 0.451,-0.251C0.451,-0.154 0.402,-0.075 0.297,-0.075Z" style="fill-rule:nonzero;"/>
                </g>
                <g transform="matrix(36,0,0,36,2018.94,92.7841)">
                    <path d="M0.074,0L0.306,0C0.417,0 0.494,-0.048 0.494,-0.149C0.494,-0.204 0.46,-0.246 0.399,-0.264C0.446,-0.283 0.474,-0.32 0.474,-0.369C0.474,-0.455 0.401,-0.5 0.295,-0.5L0.074,-0.5L0.074,0ZM0.174,-0.3L0.174,-0.42L0.295,-0.42C0.34,-0.42 0.369,-0.403 0.369,-0.361C0.369,-0.32 0.343,-0.3 0.295,-0.3L0.174,-0.3ZM0.174,-0.08L0.174,-0.22L0.299,-0.22C0.357,-0.22 0.389,-0.197 0.389,-0.15C0.389,-0.1 0.354,-0.08 0.299,-0.08L0.174,-0.08Z" style="fill-rule:nonzero;"/>
                </g>
                <g transform="matrix(36,0,0,36,2038.31,92.7841)">
                    <path d="M0.303,0.01C0.46,0.01 0.51,-0.072 0.51,-0.072L0.51,-0.137L0.445,-0.137C0.445,-0.137 0.417,-0.076 0.303,-0.076C0.202,-0.076 0.149,-0.138 0.144,-0.236L0.516,-0.236C0.516,-0.236 0.52,-0.259 0.52,-0.29C0.52,-0.416 0.452,-0.51 0.291,-0.51C0.131,-0.51 0.044,-0.394 0.044,-0.251C0.044,-0.098 0.132,0.01 0.303,0.01ZM0.149,-0.311C0.163,-0.377 0.202,-0.425 0.292,-0.425C0.38,-0.425 0.422,-0.376 0.422,-0.311L0.149,-0.311Z" style="fill-rule:nonzero;"/>
                </g>
                <g transform="matrix(36,0,0,36,2058.65,92.7841)">
                    <path d="M0.074,0L0.306,0C0.417,0 0.494,-0.048 0.494,-0.149C0.494,-0.204 0.46,-0.246 0.399,-0.264C0.446,-0.283 0.474,-0.32 0.474,-0.369C0.474,-0.455 0.401,-0.5 0.295,-0.5L0.074,-0.5L0.074,0ZM0.174,-0.3L0.174,-0.42L0.295,-0.42C0.34,-0.42 0.369,-0.403 0.369,-0.361C0.369,-0.32 0.343,-0.3 0.295,-0.3L0.174,-0.3ZM0.174,-0.08L0.174,-0.22L0.299,-0.22C0.357,-0.22 0.389,-0.197 0.389,-0.15C0.389,-0.1 0.354,-0.08 0.299,-0.08L0.174,-0.08Z" style="fill-rule:nonzero;"/>
                </g>
                <g transform="matrix(36,0,0,36,2078.02,92.7841)">
                    <path d="M0.074,0L0.694,0L0.694,-0.5L0.594,-0.5L0.594,-0.08L0.434,-0.08L0.434,-0.5L0.334,-0.5L0.334,-0.08L0.174,-0.08L0.174,-0.5L0.074,-0.5L0.074,0Z" style="fill-rule:nonzero;"/>
                </g>
                <g transform="matrix(36,0,0,36,2105.67,92.7841)">
                    <path d="M0.074,0L0.164,0L0.424,-0.352L0.424,0L0.524,0L0.524,-0.5L0.434,-0.5L0.174,-0.149L0.174,-0.5L0.074,-0.5L0.074,0Z" style="fill-rule:nonzero;"/>
                </g>
                <g transform="matrix(36,0,0,36,2127.2,92.7841)">
                    <path d="M0.04,0L0.105,0L0.258,-0.189L0.414,0L0.484,0L0.484,-0.07L0.32,-0.252L0.481,-0.435L0.481,-0.5L0.416,-0.5L0.265,-0.316L0.113,-0.5L0.043,-0.5L0.043,-0.43L0.203,-0.254L0.04,-0.065L0.04,0Z" style="fill-rule:nonzero;"/>
                </g>
                <g transform="matrix(36,0,0,36,2155.2,92.7841)">
                    <path d="M0.297,0.01C0.456,0.01 0.551,-0.108 0.551,-0.251C0.551,-0.394 0.456,-0.51 0.297,-0.51C0.137,-0.51 0.043,-0.394 0.043,-0.251C0.043,-0.108 0.137,0.01 0.297,0.01ZM0.297,-0.075C0.192,-0.075 0.143,-0.154 0.143,-0.251C0.143,-0.346 0.192,-0.425 0.297,-0.425C0.402,-0.425 0.451,-0.346 0.451,-0.251C0.451,-0.154 0.402,-0.075 0.297,-0.075Z" style="fill-rule:nonzero;"/>
                </g>
                <g transform="matrix(36,0,0,36,2176.08,92.7841)">
                    <path d="M0.179,0L0.279,0L0.279,-0.415L0.439,-0.415L0.439,-0.5L0.019,-0.5L0.019,-0.415L0.179,-0.415L0.179,0Z" style="fill-rule:nonzero;"/>
                </g>
                <g transform="matrix(36,0,0,36,2200.96,92.7841)">
                    <path d="M0.417,0.01C0.63,0.01 0.697,-0.116 0.697,-0.116L0.697,-0.186L0.617,-0.186C0.617,-0.186 0.575,-0.081 0.42,-0.081C0.255,-0.081 0.158,-0.214 0.158,-0.378C0.158,-0.543 0.255,-0.67 0.42,-0.67C0.578,-0.67 0.612,-0.569 0.612,-0.569L0.692,-0.569L0.692,-0.639C0.692,-0.639 0.633,-0.76 0.417,-0.76C0.194,-0.76 0.048,-0.593 0.048,-0.378C0.048,-0.165 0.174,0.01 0.417,0.01Z" style="fill-rule:nonzero;"/>
                </g>
                <g transform="matrix(36,0,0,36,2227.24,92.7841)">
                    <path d="M0.42,0.01C0.643,0.01 0.792,-0.155 0.792,-0.378C0.792,-0.598 0.643,-0.76 0.42,-0.76C0.197,-0.76 0.048,-0.598 0.048,-0.378C0.048,-0.155 0.197,0.01 0.42,0.01ZM0.42,-0.08C0.26,-0.08 0.158,-0.204 0.158,-0.378C0.158,-0.548 0.26,-0.67 0.42,-0.67C0.58,-0.67 0.682,-0.548 0.682,-0.378C0.682,-0.204 0.58,-0.08 0.42,-0.08Z" style="fill-rule:nonzero;"/>
                </g>
                <g transform="matrix(36,0,0,36,2256.98,92.7841)">
                    <path d="M0.298,0L0.393,0L0.674,-0.68L0.674,-0.75L0.594,-0.75L0.349,-0.143L0.104,-0.75L0.019,-0.75L0.019,-0.67L0.298,0Z" style="fill-rule:nonzero;"/>
                </g>
                <g transform="matrix(36,0,0,36,2281.82,92.7841)">
                    <rect x="0.095" y="-0.75" width="0.11" height="0.75" style="fill-rule:nonzero;"/>
                </g>
                <g transform="matrix(36,0,0,36,2292.62,92.7841)">
                    <path d="M0.095,0L0.328,0C0.562,0 0.707,-0.17 0.707,-0.378C0.707,-0.583 0.562,-0.75 0.328,-0.75L0.095,-0.75L0.095,0ZM0.205,-0.09L0.205,-0.66L0.325,-0.66C0.491,-0.66 0.597,-0.533 0.597,-0.378C0.597,-0.219 0.491,-0.09 0.325,-0.09L0.205,-0.09Z" style="fill-rule:nonzero;"/>
                </g>
                <g transform="matrix(36,0,0,36,2319.76,92.7841)">
                    <rect x="0.066" y="-0.365" width="0.27" height="0.085" style="fill-rule:nonzero;"/>
                </g>
                <g transform="matrix(36,0,0,36,2332.76,92.7841)">
                    <path d="M0.181,0L0.291,0L0.291,-0.75L0.191,-0.75L0.021,-0.615L0.021,-0.545L0.091,-0.545L0.181,-0.62L0.181,0Z" style="fill-rule:nonzero;"/>
                </g>
                <g transform="matrix(36,0,0,36,2347.01,92.7841)">
                    <path d="M0.172,0.01L0.247,0.01C0.312,-0.07 0.363,-0.135 0.403,-0.189C0.516,-0.342 0.543,-0.412 0.543,-0.521C0.543,-0.653 0.449,-0.76 0.286,-0.76C0.126,-0.76 0.029,-0.653 0.029,-0.52C0.029,-0.387 0.12,-0.281 0.286,-0.281C0.312,-0.281 0.337,-0.287 0.357,-0.295C0.342,-0.273 0.323,-0.248 0.302,-0.221C0.265,-0.173 0.219,-0.118 0.172,-0.058L0.172,0.01ZM0.286,-0.371C0.189,-0.371 0.139,-0.437 0.139,-0.521C0.139,-0.603 0.191,-0.67 0.286,-0.67C0.383,-0.67 0.433,-0.603 0.433,-0.52C0.433,-0.437 0.381,-0.371 0.286,-0.371Z" style="fill-rule:nonzero;"/>
                </g>
            </g>
            <g transform="matrix(0.152976,0,0,0.272093,-106.287,1287.06)">
                <g transform="matrix(122.569,0,0,122.569,961.28,-99.8623)">
                    <path d="M0.514,0.208C0.782,0.208 0.983,0 0.983,-0.254C0.983,-0.508 0.782,-0.716 0.514,-0.716C0.246,-0.716 0.045,-0.508 0.045,-0.254C0.045,0 0.246,0.208 0.514,0.208ZM0.514,0.118C0.303,0.118 0.145,-0.05 0.145,-0.254C0.145,-0.458 0.303,-0.626 0.514,-0.626C0.725,-0.626 0.883,-0.458 0.883,-0.254C0.883,-0.05 0.725,0.118 0.514,0.118ZM0.519,0.01C0.675,0.01 0.711,-0.082 0.711,-0.082L0.711,-0.147L0.646,-0.147C0.646,-0.147 0.63,-0.075 0.519,-0.075C0.414,-0.075 0.365,-0.154 0.365,-0.251C0.365,-0.347 0.414,-0.426 0.519,-0.426C0.625,-0.426 0.645,-0.354 0.645,-0.354L0.71,-0.354L0.71,-0.419C0.71,-0.419 0.676,-0.511 0.519,-0.511C0.359,-0.511 0.265,-0.394 0.265,-0.251C0.265,-0.108 0.349,0.01 0.519,0.01Z" style="fill-rule:nonzero;"/>
                </g>
                <g transform="matrix(122.569,0,0,122.569,1118.41,-99.8623)">
                    <path d="M0.278,0.01C0.355,0.01 0.414,-0.024 0.452,-0.078L0.462,0L0.552,0L0.552,-0.75L0.452,-0.75L0.452,-0.422C0.414,-0.476 0.355,-0.51 0.278,-0.51C0.132,-0.51 0.044,-0.394 0.044,-0.251C0.044,-0.108 0.132,0.01 0.278,0.01ZM0.298,-0.075C0.194,-0.075 0.144,-0.154 0.144,-0.251C0.144,-0.347 0.194,-0.425 0.298,-0.425C0.393,-0.425 0.452,-0.347 0.452,-0.251C0.452,-0.154 0.393,-0.075 0.298,-0.075Z" style="fill-rule:nonzero;"/>
                </g>
                <g transform="matrix(122.569,0,0,122.569,1195.14,-99.8623)">
                    <path d="M0.207,0.01C0.289,0.01 0.337,-0.036 0.362,-0.072L0.374,0L0.454,0L0.454,-0.309C0.454,-0.441 0.383,-0.51 0.249,-0.51C0.115,-0.51 0.068,-0.429 0.068,-0.429L0.068,-0.364L0.133,-0.364C0.133,-0.364 0.163,-0.425 0.246,-0.425C0.323,-0.425 0.354,-0.386 0.354,-0.311L0.354,-0.28C0.354,-0.28 0.303,-0.294 0.24,-0.294C0.096,-0.294 0.038,-0.23 0.038,-0.145C0.038,-0.059 0.095,0.01 0.207,0.01ZM0.223,-0.071C0.166,-0.071 0.136,-0.094 0.136,-0.145C0.136,-0.182 0.159,-0.218 0.24,-0.218C0.307,-0.218 0.354,-0.204 0.354,-0.204L0.354,-0.178C0.354,-0.131 0.305,-0.071 0.223,-0.071Z" style="fill-rule:nonzero;"/>
                </g>
                <g transform="matrix(122.569,0,0,122.569,1258.75,-99.8623)">
                    <path d="M0.283,0.01C0.366,0.01 0.402,-0.031 0.418,-0.057L0.418,-0.122L0.353,-0.122C0.353,-0.122 0.348,-0.075 0.284,-0.075C0.223,-0.075 0.202,-0.115 0.202,-0.178L0.202,-0.415L0.398,-0.415L0.398,-0.5L0.202,-0.5L0.202,-0.625L0.112,-0.625L0.106,-0.5L0.021,-0.5L0.021,-0.415L0.102,-0.415L0.102,-0.168C0.102,-0.052 0.163,0.01 0.283,0.01Z" style="fill-rule:nonzero;"/>
                </g>
                <g transform="matrix(122.569,0,0,122.569,1311.7,-99.8623)">
                    <path d="M0.207,0.01C0.289,0.01 0.337,-0.036 0.362,-0.072L0.374,0L0.454,0L0.454,-0.309C0.454,-0.441 0.383,-0.51 0.249,-0.51C0.115,-0.51 0.068,-0.429 0.068,-0.429L0.068,-0.364L0.133,-0.364C0.133,-0.364 0.163,-0.425 0.246,-0.425C0.323,-0.425 0.354,-0.386 0.354,-0.311L0.354,-0.28C0.354,-0.28 0.303,-0.294 0.24,-0.294C0.096,-0.294 0.038,-0.23 0.038,-0.145C0.038,-0.059 0.095,0.01 0.207,0.01ZM0.223,-0.071C0.166,-0.071 0.136,-0.094 0.136,-0.145C0.136,-0.182 0.159,-0.218 0.24,-0.218C0.307,-0.218 0.354,-0.204 0.354,-0.204L0.354,-0.178C0.354,-0.131 0.305,-0.071 0.223,-0.071Z" style="fill-rule:nonzero;"/>
                </g>
                <g transform="matrix(122.569,0,0,122.569,1375.07,-99.8623)">
                    <path d="M0.298,0L0.508,-0.435L0.508,-0.5L0.443,-0.5L0.268,-0.135L0.094,-0.5L0.024,-0.5L0.024,-0.43L0.233,0L0.298,0Z" style="fill-rule:nonzero;"/>
                </g>
                <g transform="matrix(122.569,0,0,122.569,1440.03,-99.8623)">
                    <path d="M0.074,0L0.174,0L0.174,-0.5L0.074,-0.5L0.074,0ZM0.069,-0.61L0.179,-0.61L0.179,-0.72L0.069,-0.72L0.069,-0.61Z" style="fill-rule:nonzero;"/>
                </g>
                <g transform="matrix(122.569,0,0,122.569,1470.43,-99.8623)">
                    <path d="M0.443,0L0.443,-0.085L0.165,-0.085L0.438,-0.425L0.438,-0.5L0.047,-0.5L0.047,-0.415L0.315,-0.415L0.042,-0.075L0.042,0L0.443,0Z" style="fill-rule:nonzero;"/>
                </g>
                <g transform="matrix(122.569,0,0,122.569,1529.88,-99.8623)">
                    <rect x="0.066" y="-0.12" width="0.12" height="0.12" style="fill-rule:nonzero;"/>
                </g>
                <g transform="matrix(122.569,0,0,122.569,1560.76,-99.8623)">
                    <path d="M0.074,0L0.174,0L0.174,-0.29C0.174,-0.368 0.21,-0.426 0.282,-0.426C0.36,-0.426 0.371,-0.366 0.372,-0.366L0.437,-0.366L0.437,-0.431C0.427,-0.472 0.386,-0.51 0.313,-0.51C0.244,-0.51 0.198,-0.479 0.171,-0.434L0.164,-0.5L0.074,-0.5L0.074,0Z" style="fill-rule:nonzero;"/>
                </g>
                <g transform="matrix(122.569,0,0,122.569,1615.67,-99.8623)">
                    <path d="M0.259,0.01C0.339,0.01 0.387,-0.033 0.412,-0.067L0.419,0L0.509,0L0.509,-0.5L0.409,-0.5L0.409,-0.206C0.409,-0.142 0.378,-0.074 0.282,-0.074C0.201,-0.074 0.169,-0.128 0.169,-0.207L0.169,-0.5L0.069,-0.5L0.069,-0.201C0.069,-0.085 0.121,0.01 0.259,0.01Z" style="fill-rule:nonzero;"/>
                </g>
                <g transform="matrix(122.569,0,0,122.569,1687.13,-99.8623)">
                    <rect x="0.066" y="-0.12" width="0.12" height="0.12" style="fill-rule:nonzero;"/>
                </g>
                <g transform="matrix(122.569,0,0,122.569,1749.15,-99.8623)">
                    <path d="M0.095,0L0.205,0L0.585,-0.581L0.585,0L0.695,0L0.695,-0.75L0.585,-0.75L0.205,-0.161L0.205,-0.75L0.095,-0.75L0.095,0Z" style="fill-rule:nonzero;"/>
                </g>
                <g transform="matrix(122.569,0,0,122.569,1845.98,-99.8623)">
                    <path d="M0.297,0.01C0.453,0.01 0.489,-0.082 0.489,-0.082L0.489,-0.147L0.424,-0.147C0.424,-0.147 0.408,-0.075 0.297,-0.075C0.192,-0.075 0.143,-0.154 0.143,-0.251C0.143,-0.347 0.192,-0.426 0.297,-0.426C0.403,-0.426 0.423,-0.354 0.423,-0.354L0.488,-0.354L0.488,-0.419C0.488,-0.419 0.454,-0.511 0.297,-0.511C0.137,-0.511 0.043,-0.394 0.043,-0.251C0.043,-0.108 0.127,0.01 0.297,0.01Z" style="fill-rule:nonzero;"/>
                </g>
                <g transform="matrix(122.569,0,0,122.569,1911.55,-99.8623)">
                    <path d="M0.179,0L0.279,0L0.279,-0.415L0.439,-0.415L0.439,-0.5L0.019,-0.5L0.019,-0.415L0.179,-0.415L0.179,0Z" style="fill-rule:nonzero;"/>
                </g>
                <g transform="matrix(122.569,0,0,122.569,1965.97,-99.8623)">
                    <path d="M0.297,0.01C0.456,0.01 0.551,-0.108 0.551,-0.251C0.551,-0.394 0.456,-0.51 0.297,-0.51C0.137,-0.51 0.043,-0.394 0.043,-0.251C0.043,-0.108 0.137,0.01 0.297,0.01ZM0.297,-0.075C0.192,-0.075 0.143,-0.154 0.143,-0.251C0.143,-0.346 0.192,-0.425 0.297,-0.425C0.402,-0.425 0.451,-0.346 0.451,-0.251C0.451,-0.154 0.402,-0.075 0.297,-0.075Z" style="fill-rule:nonzero;"/>
                </g>
                <g transform="matrix(122.569,0,0,122.569,2038.29,-99.8623)">
                    <path d="M0.356,0L0.456,0L0.456,-0.5L0.356,-0.5L0.356,-0.255L0.255,-0.255C0.18,-0.255 0.141,-0.285 0.141,-0.362L0.141,-0.5L0.041,-0.5L0.041,-0.362C0.041,-0.229 0.114,-0.173 0.247,-0.173L0.356,-0.173L0.356,0Z" style="fill-rule:nonzero;"/>
                </g>
                <g transform="matrix(122.569,0,0,122.569,2103.25,-99.8623)">
                    <path d="M0.074,0L0.174,0L0.174,-0.215L0.414,-0.215L0.414,0L0.514,0L0.514,-0.5L0.414,-0.5L0.414,-0.3L0.174,-0.3L0.174,-0.5L0.074,-0.5L0.074,0Z" style="fill-rule:nonzero;"/>
                </g>
                <g transform="matrix(122.569,0,0,122.569,2175.32,-99.8623)">
                    <path d="M0.074,0L0.164,0L0.424,-0.352L0.424,0L0.524,0L0.524,-0.5L0.434,-0.5L0.174,-0.149L0.174,-0.5L0.074,-0.5L0.074,0Z" style="fill-rule:nonzero;"/>
                </g>
                <g transform="matrix(122.569,0,0,122.569,2248.62,-99.8623)">
                    <path d="M0.074,0L0.174,0L0.174,-0.243L0.413,0L0.483,0L0.483,-0.07L0.289,-0.263L0.468,-0.435L0.468,-0.5L0.403,-0.5L0.174,-0.274L0.174,-0.5L0.074,-0.5L0.074,0Z" style="fill-rule:nonzero;"/>
                </g>
                <g transform="matrix(122.569,0,0,122.569,2311.86,-99.8623)">
                    <path d="M0.066,-0.38L0.186,-0.38L0.186,-0.5L0.066,-0.5L0.066,-0.38ZM0.066,0L0.186,0L0.186,-0.12L0.066,-0.12L0.066,0Z" style="fill-rule:nonzero;"/>
                </g>
                <g transform="matrix(122.569,0,0,122.569,2370.57,-99.8623)">
                    <path d="M0.178,0.01C0.305,0.01 0.359,-0.062 0.359,-0.194L0.359,-0.75L0.249,-0.75L0.249,-0.193C0.249,-0.097 0.222,-0.08 0.173,-0.08C0.115,-0.08 0.103,-0.133 0.103,-0.133L0.023,-0.133L0.023,-0.062C0.023,-0.062 0.056,0.01 0.178,0.01Z" style="fill-rule:nonzero;"/>
                </g>
                <g transform="matrix(122.569,0,0,122.569,2425.48,-99.8623)">
                    <path d="M0.297,0.01C0.456,0.01 0.551,-0.108 0.551,-0.251C0.551,-0.394 0.456,-0.51 0.297,-0.51C0.137,-0.51 0.043,-0.394 0.043,-0.251C0.043,-0.108 0.137,0.01 0.297,0.01ZM0.297,-0.075C0.192,-0.075 0.143,-0.154 0.143,-0.251C0.143,-0.346 0.192,-0.425 0.297,-0.425C0.402,-0.425 0.451,-0.346 0.451,-0.251C0.451,-0.154 0.402,-0.075 0.297,-0.075Z" style="fill-rule:nonzero;"/>
                </g>
                <g transform="matrix(122.569,0,0,122.569,2498.29,-99.8623)">
                    <path d="M0.074,0L0.174,0L0.174,-0.294C0.174,-0.358 0.205,-0.426 0.301,-0.426C0.382,-0.426 0.414,-0.372 0.414,-0.293L0.414,0L0.514,0L0.514,-0.299C0.514,-0.415 0.462,-0.51 0.324,-0.51C0.246,-0.51 0.199,-0.47 0.174,-0.437L0.174,-0.75L0.074,-0.75L0.074,0Z" style="fill-rule:nonzero;"/>
                </g>
                <g transform="matrix(122.569,0,0,122.569,2569.75,-99.8623)">
                    <path d="M0.074,0L0.174,0L0.174,-0.294C0.174,-0.358 0.205,-0.426 0.301,-0.426C0.382,-0.426 0.414,-0.372 0.414,-0.293L0.414,0L0.514,0L0.514,-0.299C0.514,-0.415 0.462,-0.51 0.324,-0.51C0.243,-0.51 0.196,-0.467 0.171,-0.433L0.164,-0.5L0.074,-0.5L0.074,0Z" style="fill-rule:nonzero;"/>
                </g>
                <g transform="matrix(122.569,0,0,122.569,2641.2,-99.8623)">
                    <path d="M0.245,0.01C0.371,0.01 0.433,-0.06 0.433,-0.148C0.433,-0.241 0.358,-0.271 0.286,-0.287L0.233,-0.299C0.185,-0.31 0.149,-0.328 0.149,-0.364C0.149,-0.398 0.172,-0.425 0.234,-0.425C0.32,-0.425 0.343,-0.365 0.343,-0.365L0.408,-0.365L0.408,-0.43C0.387,-0.468 0.34,-0.51 0.233,-0.51C0.116,-0.51 0.055,-0.437 0.055,-0.359C0.055,-0.27 0.113,-0.232 0.177,-0.218L0.232,-0.206C0.29,-0.193 0.339,-0.183 0.339,-0.136C0.339,-0.1 0.316,-0.075 0.244,-0.075C0.143,-0.075 0.11,-0.143 0.11,-0.143L0.045,-0.143L0.045,-0.078C0.045,-0.078 0.088,0.01 0.245,0.01Z" style="fill-rule:nonzero;"/>
                </g>
                <g transform="matrix(122.569,0,0,122.569,2730.43,-99.8623)">
                    <path d="M0.095,0L0.205,0L0.205,-0.34L0.565,-0.34L0.565,0L0.675,0L0.675,-0.75L0.565,-0.75L0.565,-0.43L0.205,-0.43L0.205,-0.75L0.095,-0.75L0.095,0Z" style="fill-rule:nonzero;"/>
                </g>
                <g transform="matrix(122.569,0,0,122.569,2824.81,-99.8623)">
                    <path d="M0.297,0.01C0.456,0.01 0.551,-0.108 0.551,-0.251C0.551,-0.394 0.456,-0.51 0.297,-0.51C0.137,-0.51 0.043,-0.394 0.043,-0.251C0.043,-0.108 0.137,0.01 0.297,0.01ZM0.297,-0.075C0.192,-0.075 0.143,-0.154 0.143,-0.251C0.143,-0.346 0.192,-0.425 0.297,-0.425C0.402,-0.425 0.451,-0.346 0.451,-0.251C0.451,-0.154 0.402,-0.075 0.297,-0.075Z" style="fill-rule:nonzero;"/>
                </g>
                <g transform="matrix(122.569,0,0,122.569,2897.62,-99.8623)">
                    <path d="M0.074,0.25L0.174,0.25L0.174,-0.078C0.212,-0.024 0.271,0.01 0.348,0.01C0.495,0.01 0.582,-0.108 0.582,-0.251C0.582,-0.394 0.495,-0.51 0.348,-0.51C0.271,-0.51 0.211,-0.476 0.173,-0.421L0.164,-0.5L0.074,-0.5L0.074,0.25ZM0.328,-0.075C0.233,-0.075 0.174,-0.154 0.174,-0.251C0.174,-0.347 0.233,-0.425 0.328,-0.425C0.433,-0.425 0.482,-0.347 0.482,-0.251C0.482,-0.154 0.433,-0.075 0.328,-0.075Z" style="fill-rule:nonzero;"/>
                </g>
                <g transform="matrix(122.569,0,0,122.569,2974.35,-99.8623)">
                    <path d="M0.074,0L0.174,0L0.174,-0.243L0.413,0L0.483,0L0.483,-0.07L0.288,-0.264L0.463,-0.435L0.463,-0.5L0.398,-0.5L0.174,-0.275L0.174,-0.75L0.074,-0.75L0.074,0Z" style="fill-rule:nonzero;"/>
                </g>
                <g transform="matrix(122.569,0,0,122.569,3037.1,-99.8623)">
                    <path d="M0.074,0L0.174,0L0.174,-0.5L0.074,-0.5L0.074,0ZM0.069,-0.61L0.179,-0.61L0.179,-0.72L0.069,-0.72L0.069,-0.61Z" style="fill-rule:nonzero;"/>
                </g>
                <g transform="matrix(122.569,0,0,122.569,3067.5,-99.8623)">
                    <path d="M0.074,0L0.174,0L0.174,-0.294C0.174,-0.358 0.205,-0.426 0.301,-0.426C0.382,-0.426 0.414,-0.372 0.414,-0.293L0.414,0L0.514,0L0.514,-0.299C0.514,-0.415 0.462,-0.51 0.324,-0.51C0.243,-0.51 0.196,-0.467 0.171,-0.433L0.164,-0.5L0.074,-0.5L0.074,0Z" style="fill-rule:nonzero;"/>
                </g>
                <g transform="matrix(122.569,0,0,122.569,3138.95,-99.8623)">
                    <path d="M0.245,0.01C0.371,0.01 0.433,-0.06 0.433,-0.148C0.433,-0.241 0.358,-0.271 0.286,-0.287L0.233,-0.299C0.185,-0.31 0.149,-0.328 0.149,-0.364C0.149,-0.398 0.172,-0.425 0.234,-0.425C0.32,-0.425 0.343,-0.365 0.343,-0.365L0.408,-0.365L0.408,-0.43C0.387,-0.468 0.34,-0.51 0.233,-0.51C0.116,-0.51 0.055,-0.437 0.055,-0.359C0.055,-0.27 0.113,-0.232 0.177,-0.218L0.232,-0.206C0.29,-0.193 0.339,-0.183 0.339,-0.136C0.339,-0.1 0.316,-0.075 0.244,-0.075C0.143,-0.075 0.11,-0.143 0.11,-0.143L0.045,-0.143L0.045,-0.078C0.045,-0.078 0.088,0.01 0.245,0.01Z" style="fill-rule:nonzero;"/>
                </g>
                <g transform="matrix(122.569,0,0,122.569,3228.18,-99.8623)">
                    <path d="M0.377,0.01C0.553,0.01 0.667,-0.116 0.667,-0.27L0.667,-0.75L0.567,-0.75L0.567,-0.269C0.567,-0.165 0.496,-0.08 0.377,-0.08C0.264,-0.08 0.197,-0.165 0.197,-0.269L0.197,-0.75L0.087,-0.75L0.087,-0.27C0.087,-0.116 0.201,0.01 0.377,0.01Z" style="fill-rule:nonzero;"/>
                </g>
                <g transform="matrix(122.569,0,0,122.569,3320.6,-99.8623)">
                    <path d="M0.074,0L0.174,0L0.174,-0.294C0.174,-0.358 0.205,-0.426 0.301,-0.426C0.382,-0.426 0.414,-0.372 0.414,-0.293L0.414,0L0.514,0L0.514,-0.299C0.514,-0.415 0.462,-0.51 0.324,-0.51C0.243,-0.51 0.196,-0.467 0.171,-0.433L0.164,-0.5L0.074,-0.5L0.074,0Z" style="fill-rule:nonzero;"/>
                </g>
                <g transform="matrix(122.569,0,0,122.569,3392.06,-99.8623)">
                    <path d="M0.074,0L0.174,0L0.174,-0.5L0.074,-0.5L0.074,0ZM0.069,-0.61L0.179,-0.61L0.179,-0.72L0.069,-0.72L0.069,-0.61Z" style="fill-rule:nonzero;"/>
                </g>
                <g transform="matrix(122.569,0,0,122.569,3422.46,-99.8623)">
                    <path d="M0.298,0L0.508,-0.435L0.508,-0.5L0.443,-0.5L0.268,-0.135L0.094,-0.5L0.024,-0.5L0.024,-0.43L0.233,0L0.298,0Z" style="fill-rule:nonzero;"/>
                </g>
                <g transform="matrix(122.569,0,0,122.569,3486.19,-99.8623)">
                    <path d="M0.303,0.01C0.46,0.01 0.51,-0.072 0.51,-0.072L0.51,-0.137L0.445,-0.137C0.445,-0.137 0.417,-0.076 0.303,-0.076C0.202,-0.076 0.149,-0.138 0.144,-0.236L0.516,-0.236C0.516,-0.236 0.52,-0.259 0.52,-0.29C0.52,-0.416 0.452,-0.51 0.291,-0.51C0.131,-0.51 0.044,-0.394 0.044,-0.251C0.044,-0.098 0.132,0.01 0.303,0.01ZM0.149,-0.311C0.163,-0.377 0.202,-0.425 0.292,-0.425C0.38,-0.425 0.422,-0.376 0.422,-0.311L0.149,-0.311Z" style="fill-rule:nonzero;"/>
                </g>
                <g transform="matrix(122.569,0,0,122.569,3555.44,-99.8623)">
                    <path d="M0.074,0L0.174,0L0.174,-0.29C0.174,-0.368 0.21,-0.426 0.282,-0.426C0.36,-0.426 0.371,-0.366 0.372,-0.366L0.437,-0.366L0.437,-0.431C0.427,-0.472 0.386,-0.51 0.313,-0.51C0.244,-0.51 0.198,-0.479 0.171,-0.434L0.164,-0.5L0.074,-0.5L0.074,0Z" style="fill-rule:nonzero;"/>
                </g>
                <g transform="matrix(122.569,0,0,122.569,3610.35,-99.8623)">
                    <path d="M0.245,0.01C0.371,0.01 0.433,-0.06 0.433,-0.148C0.433,-0.241 0.358,-0.271 0.286,-0.287L0.233,-0.299C0.185,-0.31 0.149,-0.328 0.149,-0.364C0.149,-0.398 0.172,-0.425 0.234,-0.425C0.32,-0.425 0.343,-0.365 0.343,-0.365L0.408,-0.365L0.408,-0.43C0.387,-0.468 0.34,-0.51 0.233,-0.51C0.116,-0.51 0.055,-0.437 0.055,-0.359C0.055,-0.27 0.113,-0.232 0.177,-0.218L0.232,-0.206C0.29,-0.193 0.339,-0.183 0.339,-0.136C0.339,-0.1 0.316,-0.075 0.244,-0.075C0.143,-0.075 0.11,-0.143 0.11,-0.143L0.045,-0.143L0.045,-0.078C0.045,-0.078 0.088,0.01 0.245,0.01Z" style="fill-rule:nonzero;"/>
                </g>
                <g transform="matrix(122.569,0,0,122.569,3668.45,-99.8623)">
                    <path d="M0.074,0L0.174,0L0.174,-0.5L0.074,-0.5L0.074,0ZM0.069,-0.61L0.179,-0.61L0.179,-0.72L0.069,-0.72L0.069,-0.61Z" style="fill-rule:nonzero;"/>
                </g>
                <g transform="matrix(122.569,0,0,122.569,3698.85,-99.8623)">
                    <path d="M0.283,0.01C0.366,0.01 0.402,-0.031 0.418,-0.057L0.418,-0.122L0.353,-0.122C0.353,-0.122 0.348,-0.075 0.284,-0.075C0.223,-0.075 0.202,-0.115 0.202,-0.178L0.202,-0.415L0.398,-0.415L0.398,-0.5L0.202,-0.5L0.202,-0.625L0.112,-0.625L0.106,-0.5L0.021,-0.5L0.021,-0.415L0.102,-0.415L0.102,-0.168C0.102,-0.052 0.163,0.01 0.283,0.01Z" style="fill-rule:nonzero;"/>
                </g>
                <g transform="matrix(122.569,0,0,122.569,3751.8,-99.8623)">
                    <path d="M0.137,0.25L0.51,-0.435L0.51,-0.5L0.445,-0.5L0.272,-0.174L0.096,-0.5L0.026,-0.5L0.026,-0.43L0.218,-0.08L0.067,0.18L0.067,0.25L0.137,0.25Z" style="fill-rule:nonzero;"/>
                </g>
            </g>
            <g transform="matrix(1.04167,0,0,1.85278,-1873.24,175.487)">
                <g transform="matrix(18,0,0,18,1838.26,39.2841)">
                    <path d="M0.095,0L0.34,0C0.501,0 0.596,-0.088 0.596,-0.223C0.596,-0.308 0.552,-0.371 0.473,-0.398C0.534,-0.425 0.569,-0.479 0.569,-0.552C0.569,-0.672 0.479,-0.75 0.336,-0.75L0.095,-0.75L0.095,0ZM0.202,-0.433L0.202,-0.662L0.335,-0.662C0.415,-0.662 0.459,-0.609 0.459,-0.548C0.459,-0.479 0.412,-0.433 0.328,-0.433L0.202,-0.433ZM0.202,-0.088L0.202,-0.347L0.342,-0.347C0.44,-0.347 0.486,-0.296 0.486,-0.222C0.486,-0.149 0.435,-0.088 0.341,-0.088L0.202,-0.088Z" style="fill-rule:nonzero;"/>
                </g>
                <g transform="matrix(18,0,0,18,1854.48,39.2841)">
                    <path d="M0.297,0.01C0.453,0.01 0.489,-0.082 0.489,-0.082L0.489,-0.147L0.424,-0.147C0.424,-0.147 0.408,-0.075 0.297,-0.075C0.192,-0.075 0.143,-0.154 0.143,-0.251C0.143,-0.347 0.192,-0.426 0.297,-0.426C0.403,-0.426 0.423,-0.354 0.423,-0.354L0.488,-0.354L0.488,-0.419C0.488,-0.419 0.454,-0.511 0.297,-0.511C0.137,-0.511 0.043,-0.394 0.043,-0.251C0.043,-0.108 0.127,0.01 0.297,0.01Z" style="fill-rule:nonzero;"/>
                </g>
                <g transform="matrix(18,0,0,18,1864.11,39.2841)">
                    <path d="M0.074,0L0.306,0C0.417,0 0.494,-0.048 0.494,-0.149C0.494,-0.204 0.46,-0.246 0.399,-0.264C0.446,-0.283 0.474,-0.32 0.474,-0.369C0.474,-0.455 0.401,-0.5 0.295,-0.5L0.074,-0.5L0.074,0ZM0.174,-0.3L0.174,-0.42L0.295,-0.42C0.34,-0.42 0.369,-0.403 0.369,-0.361C0.369,-0.32 0.343,-0.3 0.295,-0.3L0.174,-0.3ZM0.174,-0.08L0.174,-0.22L0.299,-0.22C0.357,-0.22 0.389,-0.197 0.389,-0.15C0.389,-0.1 0.354,-0.08 0.299,-0.08L0.174,-0.08Z" style="fill-rule:nonzero;"/>
                </g>
                <g transform="matrix(18,0,0,18,1873.79,39.2841)">
                    <path d="M0.354,-0.184L0.354,0L0.454,0L0.454,-0.5L0.255,-0.5C0.117,-0.5 0.055,-0.428 0.055,-0.339C0.055,-0.263 0.101,-0.216 0.176,-0.196L0.044,-0.065L0.044,0L0.114,0L0.29,-0.184L0.354,-0.184ZM0.262,-0.259C0.197,-0.259 0.16,-0.285 0.16,-0.338C0.16,-0.396 0.2,-0.42 0.262,-0.42L0.354,-0.42L0.354,-0.259L0.262,-0.259Z" style="fill-rule:nonzero;"/>
                </g>
                <g transform="matrix(18,0,0,18,1883.3,39.2841)">
                    <path d="M0.233,0.01C0.367,0.01 0.436,-0.048 0.436,-0.142C0.436,-0.198 0.403,-0.241 0.346,-0.261C0.391,-0.283 0.418,-0.322 0.418,-0.372C0.418,-0.462 0.347,-0.51 0.235,-0.51C0.142,-0.51 0.083,-0.48 0.049,-0.429L0.049,-0.364L0.114,-0.364C0.133,-0.404 0.171,-0.425 0.228,-0.425C0.285,-0.425 0.317,-0.402 0.317,-0.358C0.317,-0.315 0.291,-0.293 0.232,-0.293L0.151,-0.293L0.151,-0.213L0.235,-0.213C0.306,-0.213 0.335,-0.19 0.335,-0.148C0.335,-0.1 0.302,-0.075 0.231,-0.075C0.173,-0.075 0.132,-0.094 0.109,-0.137L0.044,-0.137L0.044,-0.072C0.081,-0.019 0.148,0.01 0.233,0.01Z" style="fill-rule:nonzero;"/>
                </g>
                <g transform="matrix(18,0,0,18,1891.94,39.2841)">
                    <path d="M0.074,0L0.164,0L0.424,-0.352L0.424,0L0.524,0L0.524,-0.5L0.434,-0.5L0.174,-0.149L0.174,-0.5L0.074,-0.5L0.074,0Z" style="fill-rule:nonzero;"/>
                </g>
                <g transform="matrix(18,0,0,18,1907.27,39.2841)">
                    <path d="M0.297,0.01C0.453,0.01 0.489,-0.082 0.489,-0.082L0.489,-0.147L0.424,-0.147C0.424,-0.147 0.408,-0.075 0.297,-0.075C0.192,-0.075 0.143,-0.154 0.143,-0.251C0.143,-0.347 0.192,-0.426 0.297,-0.426C0.403,-0.426 0.423,-0.354 0.423,-0.354L0.488,-0.354L0.488,-0.419C0.488,-0.419 0.454,-0.511 0.297,-0.511C0.137,-0.511 0.043,-0.394 0.043,-0.251C0.043,-0.108 0.127,0.01 0.297,0.01Z" style="fill-rule:nonzero;"/>
                </g>
                <g transform="matrix(18,0,0,18,1921.47,39.2841)">
                    <path d="M0.237,0.01C0.407,0.01 0.491,-0.108 0.491,-0.251C0.491,-0.394 0.407,-0.511 0.237,-0.511C0.1,-0.511 0.046,-0.419 0.046,-0.419L0.046,-0.354L0.111,-0.354C0.111,-0.354 0.141,-0.426 0.237,-0.426C0.334,-0.426 0.377,-0.37 0.388,-0.294L0.17,-0.294L0.17,-0.214L0.389,-0.214C0.379,-0.135 0.337,-0.075 0.237,-0.075C0.146,-0.075 0.11,-0.147 0.11,-0.147L0.045,-0.147L0.045,-0.082C0.045,-0.082 0.101,0.01 0.237,0.01Z" style="fill-rule:nonzero;"/>
                </g>
                <g transform="matrix(18,0,0,18,1930.85,39.2841)">
                    <path d="M0.179,0L0.279,0L0.279,-0.415L0.439,-0.415L0.439,-0.5L0.019,-0.5L0.019,-0.415L0.179,-0.415L0.179,0Z" style="fill-rule:nonzero;"/>
                </g>
                <g transform="matrix(18,0,0,18,1939.1,39.2841)">
                    <path d="M0.074,0L0.164,0L0.424,-0.352L0.424,0L0.524,0L0.524,-0.5L0.434,-0.5L0.174,-0.149L0.174,-0.5L0.074,-0.5L0.074,0Z" style="fill-rule:nonzero;"/>
                </g>
                <g transform="matrix(18,0,0,18,1949.86,39.2841)">
                    <path d="M0.318,-0.12L0.383,-0.12L0.533,-0.35L0.533,0L0.633,0L0.633,-0.5L0.523,-0.5L0.355,-0.235L0.184,-0.5L0.074,-0.5L0.074,0L0.169,0L0.169,-0.348L0.318,-0.12Z" style="fill-rule:nonzero;"/>
                </g>
                <g transform="matrix(18,0,0,18,1967.16,39.2841)">
                    <path d="M0.074,0L0.174,0L0.174,-0.215L0.414,-0.215L0.414,0L0.514,0L0.514,-0.5L0.414,-0.5L0.414,-0.3L0.174,-0.3L0.174,-0.5L0.074,-0.5L0.074,0Z" style="fill-rule:nonzero;"/>
                </g>
                <g transform="matrix(18,0,0,18,1977.74,39.2841)">
                    <path d="M0.137,0.25L0.51,-0.435L0.51,-0.5L0.445,-0.5L0.272,-0.174L0.096,-0.5L0.026,-0.5L0.026,-0.43L0.218,-0.08L0.067,0.18L0.067,0.25L0.137,0.25Z" style="fill-rule:nonzero;"/>
                </g>
                <g transform="matrix(18,0,0,18,1987.23,39.2841)">
                    <path d="M0.039,0L0.109,0L0.337,-0.244L0.337,0L0.437,0L0.437,-0.246L0.669,0L0.739,0L0.739,-0.07L0.553,-0.262L0.729,-0.435L0.729,-0.5L0.664,-0.5L0.437,-0.272L0.437,-0.5L0.337,-0.5L0.337,-0.273L0.106,-0.5L0.041,-0.5L0.041,-0.437L0.221,-0.26L0.039,-0.07L0.039,0Z" style="fill-rule:nonzero;"/>
                </g>
                <g transform="matrix(18,0,0,18,2001.16,39.2841)">
                    <path d="M0.074,0L0.174,0L0.174,-0.215L0.414,-0.215L0.414,0L0.514,0L0.514,-0.5L0.414,-0.5L0.414,-0.3L0.174,-0.3L0.174,-0.5L0.074,-0.5L0.074,0Z" style="fill-rule:nonzero;"/>
                </g>
                <g transform="matrix(18,0,0,18,2011.74,39.2841)">
                    <path d="M0.297,0.01C0.456,0.01 0.551,-0.108 0.551,-0.251C0.551,-0.394 0.456,-0.51 0.297,-0.51C0.137,-0.51 0.043,-0.394 0.043,-0.251C0.043,-0.108 0.137,0.01 0.297,0.01ZM0.297,-0.075C0.192,-0.075 0.143,-0.154 0.143,-0.251C0.143,-0.346 0.192,-0.425 0.297,-0.425C0.402,-0.425 0.451,-0.346 0.451,-0.251C0.451,-0.154 0.402,-0.075 0.297,-0.075Z" style="fill-rule:nonzero;"/>
                </g>
                <g transform="matrix(18,0,0,18,2027.01,39.2841)">
                    <path d="M0.074,0L0.174,0L0.174,-0.415L0.404,-0.415L0.404,0L0.504,0L0.504,-0.5L0.074,-0.5L0.074,0Z" style="fill-rule:nonzero;"/>
                </g>
                <g transform="matrix(18,0,0,18,2037.41,39.2841)">
                    <path d="M0.297,0.01C0.456,0.01 0.551,-0.108 0.551,-0.251C0.551,-0.394 0.456,-0.51 0.297,-0.51C0.137,-0.51 0.043,-0.394 0.043,-0.251C0.043,-0.108 0.137,0.01 0.297,0.01ZM0.297,-0.075C0.192,-0.075 0.143,-0.154 0.143,-0.251C0.143,-0.346 0.192,-0.425 0.297,-0.425C0.402,-0.425 0.451,-0.346 0.451,-0.251C0.451,-0.154 0.402,-0.075 0.297,-0.075Z" style="fill-rule:nonzero;"/>
                </g>
                <g transform="matrix(18,0,0,18,2047.92,39.2841)">
                    <path d="M0.013,0.14L0.103,0.14L0.103,0L0.496,0L0.496,0.14L0.586,0.14L0.586,-0.08L0.506,-0.08L0.506,-0.5L0.135,-0.5L0.117,-0.26C0.11,-0.16 0.095,-0.1 0.067,-0.08L0.013,-0.08L0.013,0.14ZM0.168,-0.08C0.189,-0.119 0.2,-0.173 0.205,-0.243L0.218,-0.42L0.406,-0.42L0.406,-0.08L0.168,-0.08Z" style="fill-rule:nonzero;"/>
                </g>
                <g transform="matrix(18,0,0,18,2058.63,39.2841)">
                    <path d="M0.356,0L0.456,0L0.456,-0.5L0.356,-0.5L0.356,-0.255L0.255,-0.255C0.18,-0.255 0.141,-0.285 0.141,-0.362L0.141,-0.5L0.041,-0.5L0.041,-0.362C0.041,-0.229 0.114,-0.173 0.247,-0.173L0.356,-0.173L0.356,0Z" style="fill-rule:nonzero;"/>
                </g>
                <g transform="matrix(18,0,0,18,2068.17,39.2841)">
                    <path d="M0.303,0.01C0.46,0.01 0.51,-0.072 0.51,-0.072L0.51,-0.137L0.445,-0.137C0.445,-0.137 0.417,-0.076 0.303,-0.076C0.202,-0.076 0.149,-0.138 0.144,-0.236L0.516,-0.236C0.516,-0.236 0.52,-0.259 0.52,-0.29C0.52,-0.416 0.452,-0.51 0.291,-0.51C0.131,-0.51 0.044,-0.394 0.044,-0.251C0.044,-0.098 0.132,0.01 0.303,0.01ZM0.149,-0.311C0.163,-0.377 0.202,-0.425 0.292,-0.425C0.38,-0.425 0.422,-0.376 0.422,-0.311L0.149,-0.311Z" style="fill-rule:nonzero;"/>
                </g>
                <g transform="matrix(18,0,0,18,2078.34,39.2841)">
                    <path d="M0.074,0.25L0.174,0.25L0.174,-0.078C0.212,-0.024 0.271,0.01 0.348,0.01C0.495,0.01 0.582,-0.108 0.582,-0.251C0.582,-0.394 0.495,-0.51 0.348,-0.51C0.271,-0.51 0.211,-0.476 0.173,-0.421L0.164,-0.5L0.074,-0.5L0.074,0.25ZM0.328,-0.075C0.233,-0.075 0.174,-0.154 0.174,-0.251C0.174,-0.347 0.233,-0.425 0.328,-0.425C0.433,-0.425 0.482,-0.347 0.482,-0.251C0.482,-0.154 0.433,-0.075 0.328,-0.075Z" style="fill-rule:nonzero;"/>
                </g>
                <g transform="matrix(18,0,0,18,2089.61,39.2841)">
                    <path d="M0.074,0L0.174,0L0.174,-0.243L0.413,0L0.483,0L0.483,-0.07L0.289,-0.263L0.468,-0.435L0.468,-0.5L0.403,-0.5L0.174,-0.274L0.174,-0.5L0.074,-0.5L0.074,0Z" style="fill-rule:nonzero;"/>
                </g>
                <g transform="matrix(18,0,0,18,2098.9,39.2841)">
                    <path d="M0.074,0L0.174,0L0.174,-0.215L0.414,-0.215L0.414,0L0.514,0L0.514,-0.5L0.414,-0.5L0.414,-0.3L0.174,-0.3L0.174,-0.5L0.074,-0.5L0.074,0Z" style="fill-rule:nonzero;"/>
                </g>
                <g transform="matrix(18,0,0,18,2109.48,39.2841)">
                    <path d="M0.137,0.25L0.51,-0.435L0.51,-0.5L0.445,-0.5L0.272,-0.174L0.096,-0.5L0.026,-0.5L0.026,-0.43L0.218,-0.08L0.067,0.18L0.067,0.25L0.137,0.25Z" style="fill-rule:nonzero;"/>
                </g>
                <g transform="matrix(18,0,0,18,2118.97,39.2841)">
                    <path d="M0.179,0L0.279,0L0.279,-0.415L0.439,-0.415L0.439,-0.5L0.019,-0.5L0.019,-0.415L0.179,-0.415L0.179,0Z" style="fill-rule:nonzero;"/>
                </g>
                <g transform="matrix(18,0,0,18,2127.21,39.2841)">
                    <path d="M0.074,0L0.273,0C0.415,0 0.479,-0.074 0.479,-0.169C0.479,-0.261 0.414,-0.33 0.274,-0.33L0.174,-0.33L0.174,-0.5L0.074,-0.5L0.074,0ZM0.174,-0.08L0.174,-0.25L0.266,-0.25C0.335,-0.25 0.374,-0.223 0.374,-0.168C0.374,-0.105 0.332,-0.08 0.266,-0.08L0.174,-0.08Z" style="fill-rule:nonzero;"/>
                </g>
                <g transform="matrix(18,0,0,18,2136.36,39.2841)">
                    <path d="M0.068,0.141L0.138,0.141L0.188,-0.02L0.188,-0.12L0.068,-0.12L0.068,0.141Z" style="fill-rule:nonzero;"/>
                </g>
                <g transform="matrix(18,0,0,18,2145.23,39.2841)">
                    <path d="M0.356,0L0.456,0L0.456,-0.5L0.356,-0.5L0.356,-0.255L0.255,-0.255C0.18,-0.255 0.141,-0.285 0.141,-0.362L0.141,-0.5L0.041,-0.5L0.041,-0.362C0.041,-0.229 0.114,-0.173 0.247,-0.173L0.356,-0.173L0.356,0Z" style="fill-rule:nonzero;"/>
                </g>
                <g transform="matrix(18,0,0,18,2154.77,39.2841)">
                    <path d="M0.179,0L0.279,0L0.279,-0.415L0.439,-0.415L0.439,-0.5L0.019,-0.5L0.019,-0.415L0.179,-0.415L0.179,0Z" style="fill-rule:nonzero;"/>
                </g>
                <g transform="matrix(18,0,0,18,2162.76,39.2841)">
                    <path d="M0.297,0.01C0.456,0.01 0.551,-0.108 0.551,-0.251C0.551,-0.394 0.456,-0.51 0.297,-0.51C0.137,-0.51 0.043,-0.394 0.043,-0.251C0.043,-0.108 0.137,0.01 0.297,0.01ZM0.297,-0.075C0.192,-0.075 0.143,-0.154 0.143,-0.251C0.143,-0.346 0.192,-0.425 0.297,-0.425C0.402,-0.425 0.451,-0.346 0.451,-0.251C0.451,-0.154 0.402,-0.075 0.297,-0.075Z" style="fill-rule:nonzero;"/>
                </g>
                <g transform="matrix(18,0,0,18,2177.65,39.2841)">
                    <path d="M0.013,0.14L0.103,0.14L0.103,0L0.496,0L0.496,0.14L0.586,0.14L0.586,-0.08L0.506,-0.08L0.506,-0.5L0.135,-0.5L0.117,-0.26C0.11,-0.16 0.095,-0.1 0.067,-0.08L0.013,-0.08L0.013,0.14ZM0.168,-0.08C0.189,-0.119 0.2,-0.173 0.205,-0.243L0.218,-0.42L0.406,-0.42L0.406,-0.08L0.168,-0.08Z" style="fill-rule:nonzero;"/>
                </g>
                <g transform="matrix(18,0,0,18,2188.74,39.2841)">
                    <path d="M0.074,0L0.306,0C0.417,0 0.494,-0.048 0.494,-0.149C0.494,-0.204 0.46,-0.246 0.399,-0.264C0.446,-0.283 0.474,-0.32 0.474,-0.369C0.474,-0.455 0.401,-0.5 0.295,-0.5L0.074,-0.5L0.074,0ZM0.174,-0.3L0.174,-0.42L0.295,-0.42C0.34,-0.42 0.369,-0.403 0.369,-0.361C0.369,-0.32 0.343,-0.3 0.295,-0.3L0.174,-0.3ZM0.174,-0.08L0.174,-0.22L0.299,-0.22C0.357,-0.22 0.389,-0.197 0.389,-0.15C0.389,-0.1 0.354,-0.08 0.299,-0.08L0.174,-0.08Z" style="fill-rule:nonzero;"/>
                </g>
                <g transform="matrix(18,0,0,18,2198.42,39.2841)">
                    <path d="M0.074,0L0.164,0L0.424,-0.352L0.424,0L0.524,0L0.524,-0.5L0.434,-0.5L0.174,-0.149L0.174,-0.5L0.074,-0.5L0.074,0Z" style="fill-rule:nonzero;"/>
                </g>
                <g transform="matrix(18,0,0,18,2209.19,39.2841)">
                    <path d="M0.039,0L0.109,0L0.337,-0.244L0.337,0L0.437,0L0.437,-0.246L0.669,0L0.739,0L0.739,-0.07L0.553,-0.262L0.729,-0.435L0.729,-0.5L0.664,-0.5L0.437,-0.272L0.437,-0.5L0.337,-0.5L0.337,-0.273L0.106,-0.5L0.041,-0.5L0.041,-0.437L0.221,-0.26L0.039,-0.07L0.039,0Z" style="fill-rule:nonzero;"/>
                </g>
                <g transform="matrix(18,0,0,18,2223.12,39.2841)">
                    <path d="M0.074,0L0.164,0L0.424,-0.352L0.424,0L0.524,0L0.524,-0.5L0.434,-0.5L0.174,-0.149L0.174,-0.5L0.074,-0.5L0.074,0Z" style="fill-rule:nonzero;"/>
                </g>
                <g transform="matrix(18,0,0,18,2233.88,39.2841)">
                    <path d="M0.318,-0.12L0.383,-0.12L0.533,-0.35L0.533,0L0.633,0L0.633,-0.5L0.523,-0.5L0.355,-0.235L0.184,-0.5L0.074,-0.5L0.074,0L0.169,0L0.169,-0.348L0.318,-0.12Z" style="fill-rule:nonzero;"/>
                </g>
                <g transform="matrix(18,0,0,18,2246.61,39.2841)">
                    <path d="M0.297,0.01C0.456,0.01 0.551,-0.108 0.551,-0.251C0.551,-0.394 0.456,-0.51 0.297,-0.51C0.137,-0.51 0.043,-0.394 0.043,-0.251C0.043,-0.108 0.137,0.01 0.297,0.01ZM0.297,-0.075C0.192,-0.075 0.143,-0.154 0.143,-0.251C0.143,-0.346 0.192,-0.425 0.297,-0.425C0.402,-0.425 0.451,-0.346 0.451,-0.251C0.451,-0.154 0.402,-0.075 0.297,-0.075Z" style="fill-rule:nonzero;"/>
                </g>
                <g transform="matrix(18,0,0,18,2257.3,39.2841)">
                    <path d="M0.303,0.01C0.46,0.01 0.51,-0.072 0.51,-0.072L0.51,-0.137L0.445,-0.137C0.445,-0.137 0.417,-0.076 0.303,-0.076C0.202,-0.076 0.149,-0.138 0.144,-0.236L0.516,-0.236C0.516,-0.236 0.52,-0.259 0.52,-0.29C0.52,-0.416 0.452,-0.51 0.291,-0.51C0.131,-0.51 0.044,-0.394 0.044,-0.251C0.044,-0.098 0.132,0.01 0.303,0.01ZM0.149,-0.311C0.163,-0.377 0.202,-0.425 0.292,-0.425C0.38,-0.425 0.422,-0.376 0.422,-0.311L0.149,-0.311Z" style="fill-rule:nonzero;"/>
                </g>
                <g transform="matrix(18,0,0,18,2272.04,39.2841)">
                    <path d="M0.074,0L0.164,0L0.424,-0.352L0.424,0L0.524,0L0.524,-0.5L0.434,-0.5L0.174,-0.149L0.174,-0.5L0.074,-0.5L0.074,0Z" style="fill-rule:nonzero;"/>
                </g>
                <g transform="matrix(18,0,0,18,2282.81,39.2841)">
                    <path d="M0.318,-0.12L0.383,-0.12L0.533,-0.35L0.533,0L0.633,0L0.633,-0.5L0.523,-0.5L0.355,-0.235L0.184,-0.5L0.074,-0.5L0.074,0L0.169,0L0.169,-0.348L0.318,-0.12Z" style="fill-rule:nonzero;"/>
                </g>
                <g transform="matrix(18,0,0,18,2295.53,39.2841)">
                    <path d="M0.137,0.25L0.51,-0.435L0.51,-0.5L0.445,-0.5L0.272,-0.174L0.096,-0.5L0.026,-0.5L0.026,-0.43L0.218,-0.08L0.067,0.18L0.067,0.25L0.137,0.25Z" style="fill-rule:nonzero;"/>
                </g>
                <g transform="matrix(18,0,0,18,2305.02,39.2841)">
                    <path d="M0.684,0.14L0.774,0.14L0.774,-0.08L0.694,-0.08L0.694,-0.5L0.594,-0.5L0.594,-0.08L0.434,-0.08L0.434,-0.5L0.334,-0.5L0.334,-0.08L0.174,-0.08L0.174,-0.5L0.074,-0.5L0.074,0L0.684,0L0.684,0.14Z" style="fill-rule:nonzero;"/>
                </g>
                <g transform="matrix(18,0,0,18,2319.33,39.2841)">
                    <path d="M0.303,0.01C0.46,0.01 0.51,-0.072 0.51,-0.072L0.51,-0.137L0.445,-0.137C0.445,-0.137 0.417,-0.076 0.303,-0.076C0.202,-0.076 0.149,-0.138 0.144,-0.236L0.516,-0.236C0.516,-0.236 0.52,-0.259 0.52,-0.29C0.52,-0.416 0.452,-0.51 0.291,-0.51C0.131,-0.51 0.044,-0.394 0.044,-0.251C0.044,-0.098 0.132,0.01 0.303,0.01ZM0.149,-0.311C0.163,-0.377 0.202,-0.425 0.292,-0.425C0.38,-0.425 0.422,-0.376 0.422,-0.311L0.149,-0.311Z" style="fill-rule:nonzero;"/>
                </g>
                <g transform="matrix(18,0,0,18,2329.5,39.2841)">
                    <path d="M0.297,0.01C0.453,0.01 0.489,-0.082 0.489,-0.082L0.489,-0.147L0.424,-0.147C0.424,-0.147 0.408,-0.075 0.297,-0.075C0.192,-0.075 0.143,-0.154 0.143,-0.251C0.143,-0.347 0.192,-0.426 0.297,-0.426C0.403,-0.426 0.423,-0.354 0.423,-0.354L0.488,-0.354L0.488,-0.419C0.488,-0.419 0.454,-0.511 0.297,-0.511C0.137,-0.511 0.043,-0.394 0.043,-0.251C0.043,-0.108 0.127,0.01 0.297,0.01Z" style="fill-rule:nonzero;"/>
                </g>
                <g transform="matrix(18,0,0,18,2339.13,39.2841)">
                    <path d="M0.179,0L0.279,0L0.279,-0.415L0.439,-0.415L0.439,-0.5L0.019,-0.5L0.019,-0.415L0.179,-0.415L0.179,0Z" style="fill-rule:nonzero;"/>
                </g>
                <g transform="matrix(18,0,0,18,2347.37,39.2841)">
                    <path d="M0.074,0L0.306,0C0.417,0 0.494,-0.048 0.494,-0.149C0.494,-0.204 0.46,-0.246 0.399,-0.264C0.446,-0.283 0.474,-0.32 0.474,-0.369C0.474,-0.455 0.401,-0.5 0.295,-0.5L0.074,-0.5L0.074,0ZM0.174,-0.3L0.174,-0.42L0.295,-0.42C0.34,-0.42 0.369,-0.403 0.369,-0.361C0.369,-0.32 0.343,-0.3 0.295,-0.3L0.174,-0.3ZM0.174,-0.08L0.174,-0.22L0.299,-0.22C0.357,-0.22 0.389,-0.197 0.389,-0.15C0.389,-0.1 0.354,-0.08 0.299,-0.08L0.174,-0.08Z" style="fill-rule:nonzero;"/>
                </g>
                <g transform="matrix(18,0,0,18,2357.06,39.2841)">
                    <path d="M0.297,0.01C0.456,0.01 0.551,-0.108 0.551,-0.251C0.551,-0.394 0.456,-0.51 0.297,-0.51C0.137,-0.51 0.043,-0.394 0.043,-0.251C0.043,-0.108 0.137,0.01 0.297,0.01ZM0.297,-0.075C0.192,-0.075 0.143,-0.154 0.143,-0.251C0.143,-0.346 0.192,-0.425 0.297,-0.425C0.402,-0.425 0.451,-0.346 0.451,-0.251C0.451,-0.154 0.402,-0.075 0.297,-0.075Z" style="fill-rule:nonzero;"/>
                </g>
                <g transform="matrix(18,0,0,18,2372.32,39.2841)">
                    <path d="M0.297,0.01C0.453,0.01 0.489,-0.082 0.489,-0.082L0.489,-0.147L0.424,-0.147C0.424,-0.147 0.408,-0.075 0.297,-0.075C0.192,-0.075 0.143,-0.154 0.143,-0.251C0.143,-0.347 0.192,-0.426 0.297,-0.426C0.403,-0.426 0.423,-0.354 0.423,-0.354L0.488,-0.354L0.488,-0.419C0.488,-0.419 0.454,-0.511 0.297,-0.511C0.137,-0.511 0.043,-0.394 0.043,-0.251C0.043,-0.108 0.127,0.01 0.297,0.01Z" style="fill-rule:nonzero;"/>
                </g>
                <g transform="matrix(18,0,0,18,2381.95,39.2841)">
                    <path d="M0.015,0L0.052,0C0.159,0 0.201,-0.093 0.205,-0.218L0.211,-0.42L0.375,-0.42L0.375,0L0.475,0L0.475,-0.5L0.123,-0.5L0.116,-0.229C0.113,-0.124 0.089,-0.091 0.026,-0.087L0.015,-0.087L0.015,0Z" style="fill-rule:nonzero;"/>
                </g>
                <g transform="matrix(18,0,0,18,2391.83,39.2841)">
                    <path d="M0.137,0.25L0.51,-0.435L0.51,-0.5L0.445,-0.5L0.272,-0.174L0.096,-0.5L0.026,-0.5L0.026,-0.43L0.218,-0.08L0.067,0.18L0.067,0.25L0.137,0.25Z" style="fill-rule:nonzero;"/>
                </g>
                <g transform="matrix(18,0,0,18,2401.32,39.2841)">
                    <path d="M0.356,0L0.456,0L0.456,-0.5L0.356,-0.5L0.356,-0.255L0.255,-0.255C0.18,-0.255 0.141,-0.285 0.141,-0.362L0.141,-0.5L0.041,-0.5L0.041,-0.362C0.041,-0.229 0.114,-0.173 0.247,-0.173L0.356,-0.173L0.356,0Z" style="fill-rule:nonzero;"/>
                </g>
                <g transform="matrix(18,0,0,18,2410.86,39.2841)">
                    <path d="M0.207,0.01C0.289,0.01 0.337,-0.036 0.362,-0.072L0.374,0L0.454,0L0.454,-0.309C0.454,-0.441 0.383,-0.51 0.249,-0.51C0.115,-0.51 0.068,-0.429 0.068,-0.429L0.068,-0.364L0.133,-0.364C0.133,-0.364 0.163,-0.425 0.246,-0.425C0.323,-0.425 0.354,-0.386 0.354,-0.311L0.354,-0.28C0.354,-0.28 0.303,-0.294 0.24,-0.294C0.096,-0.294 0.038,-0.23 0.038,-0.145C0.038,-0.059 0.095,0.01 0.207,0.01ZM0.223,-0.071C0.166,-0.071 0.136,-0.094 0.136,-0.145C0.136,-0.182 0.159,-0.218 0.24,-0.218C0.307,-0.218 0.354,-0.204 0.354,-0.204L0.354,-0.178C0.354,-0.131 0.305,-0.071 0.223,-0.071Z" style="fill-rule:nonzero;"/>
                </g>
                <g transform="matrix(18,0,0,18,2420.27,39.2841)">
                    <path d="M0.074,0L0.164,0L0.424,-0.352L0.424,0L0.524,0L0.524,-0.5L0.434,-0.5L0.174,-0.149L0.174,-0.5L0.074,-0.5L0.074,0ZM0.306,-0.574C0.438,-0.574 0.459,-0.664 0.459,-0.664L0.459,-0.72L0.384,-0.72C0.384,-0.72 0.367,-0.656 0.306,-0.656C0.239,-0.656 0.228,-0.72 0.228,-0.72L0.153,-0.72L0.153,-0.664C0.153,-0.664 0.174,-0.574 0.306,-0.574Z" style="fill-rule:nonzero;"/>
                </g>
                <g transform="matrix(18,0,0,18,2431.04,39.2841)">
                    <path d="M0.074,0L0.174,0L0.174,-0.215L0.414,-0.215L0.414,0L0.514,0L0.514,-0.5L0.414,-0.5L0.414,-0.3L0.174,-0.3L0.174,-0.5L0.074,-0.5L0.074,0Z" style="fill-rule:nonzero;"/>
                </g>
                <g transform="matrix(18,0,0,18,2441.62,39.2841)">
                    <path d="M0.297,0.01C0.456,0.01 0.551,-0.108 0.551,-0.251C0.551,-0.394 0.456,-0.51 0.297,-0.51C0.137,-0.51 0.043,-0.394 0.043,-0.251C0.043,-0.108 0.137,0.01 0.297,0.01ZM0.297,-0.075C0.192,-0.075 0.143,-0.154 0.143,-0.251C0.143,-0.346 0.192,-0.425 0.297,-0.425C0.402,-0.425 0.451,-0.346 0.451,-0.251C0.451,-0.154 0.402,-0.075 0.297,-0.075Z" style="fill-rule:nonzero;"/>
                </g>
                <g transform="matrix(18,0,0,18,2452.13,39.2841)">
                    <rect x="0.066" y="-0.12" width="0.12" height="0.12" style="fill-rule:nonzero;"/>
                </g>
                <g transform="matrix(18,0,0,18,1838.26,57.2841)">
                    <path d="M0.095,0L0.205,0L0.205,-0.66L0.526,-0.66L0.526,-0.75L0.095,-0.75L0.095,0Z" style="fill-rule:nonzero;"/>
                </g>
                <g transform="matrix(18,0,0,18,1845.19,57.2841)">
                    <path d="M0.303,0.01C0.46,0.01 0.51,-0.072 0.51,-0.072L0.51,-0.137L0.445,-0.137C0.445,-0.137 0.417,-0.076 0.303,-0.076C0.202,-0.076 0.149,-0.138 0.144,-0.236L0.516,-0.236C0.516,-0.236 0.52,-0.259 0.52,-0.29C0.52,-0.416 0.452,-0.51 0.291,-0.51C0.131,-0.51 0.044,-0.394 0.044,-0.251C0.044,-0.098 0.132,0.01 0.303,0.01ZM0.149,-0.311C0.163,-0.377 0.202,-0.425 0.292,-0.425C0.38,-0.425 0.422,-0.376 0.422,-0.311L0.149,-0.311Z" style="fill-rule:nonzero;"/>
                </g>
                <g transform="matrix(18,0,0,18,1855.36,57.2841)">
                    <path d="M0.074,0L0.174,0L0.174,-0.415L0.414,-0.415L0.414,-0.5L0.074,-0.5L0.074,0Z" style="fill-rule:nonzero;"/>
                </g>
                <g transform="matrix(18,0,0,18,1862.87,57.2841)">
                    <path d="M0.303,0.01C0.46,0.01 0.51,-0.072 0.51,-0.072L0.51,-0.137L0.445,-0.137C0.445,-0.137 0.417,-0.076 0.303,-0.076C0.202,-0.076 0.149,-0.138 0.144,-0.236L0.516,-0.236C0.516,-0.236 0.52,-0.259 0.52,-0.29C0.52,-0.416 0.452,-0.51 0.291,-0.51C0.131,-0.51 0.044,-0.394 0.044,-0.251C0.044,-0.098 0.132,0.01 0.303,0.01ZM0.149,-0.311C0.163,-0.377 0.202,-0.425 0.292,-0.425C0.38,-0.425 0.422,-0.376 0.422,-0.311L0.149,-0.311Z" style="fill-rule:nonzero;"/>
                </g>
                <g transform="matrix(18,0,0,18,1873.04,57.2841)">
                    <path d="M0.015,0L0.052,0C0.159,0 0.201,-0.093 0.205,-0.218L0.211,-0.42L0.375,-0.42L0.375,0L0.475,0L0.475,-0.5L0.123,-0.5L0.116,-0.229C0.113,-0.124 0.089,-0.091 0.026,-0.087L0.015,-0.087L0.015,0Z" style="fill-rule:nonzero;"/>
                </g>
                <g transform="matrix(18,0,0,18,1882.92,57.2841)">
                    <path d="M0.074,0L0.273,0C0.415,0 0.479,-0.074 0.479,-0.169C0.479,-0.261 0.414,-0.33 0.274,-0.33L0.174,-0.33L0.174,-0.5L0.074,-0.5L0.074,0ZM0.174,-0.08L0.174,-0.25L0.266,-0.25C0.335,-0.25 0.374,-0.223 0.374,-0.168C0.374,-0.105 0.332,-0.08 0.266,-0.08L0.174,-0.08Z" style="fill-rule:nonzero;"/>
                </g>
                <g transform="matrix(18,0,0,18,1891.97,57.2841)">
                    <path d="M0.354,-0.184L0.354,0L0.454,0L0.454,-0.5L0.255,-0.5C0.117,-0.5 0.055,-0.428 0.055,-0.339C0.055,-0.263 0.101,-0.216 0.176,-0.196L0.044,-0.065L0.044,0L0.114,0L0.29,-0.184L0.354,-0.184ZM0.262,-0.259C0.197,-0.259 0.16,-0.285 0.16,-0.338C0.16,-0.396 0.2,-0.42 0.262,-0.42L0.354,-0.42L0.354,-0.259L0.262,-0.259Z" style="fill-rule:nonzero;"/>
                </g>
                <g transform="matrix(18,0,0,18,1901.48,57.2841)">
                    <path d="M0.074,0L0.174,0L0.174,-0.215L0.414,-0.215L0.414,0L0.514,0L0.514,-0.5L0.414,-0.5L0.414,-0.3L0.174,-0.3L0.174,-0.5L0.074,-0.5L0.074,0Z" style="fill-rule:nonzero;"/>
                </g>
                <g transform="matrix(18,0,0,18,1912.06,57.2841)">
                    <path d="M0.297,0.01C0.453,0.01 0.489,-0.082 0.489,-0.082L0.489,-0.147L0.424,-0.147C0.424,-0.147 0.408,-0.075 0.297,-0.075C0.192,-0.075 0.143,-0.154 0.143,-0.251C0.143,-0.347 0.192,-0.426 0.297,-0.426C0.403,-0.426 0.423,-0.354 0.423,-0.354L0.488,-0.354L0.488,-0.419C0.488,-0.419 0.454,-0.511 0.297,-0.511C0.137,-0.511 0.043,-0.394 0.043,-0.251C0.043,-0.108 0.127,0.01 0.297,0.01Z" style="fill-rule:nonzero;"/>
                </g>
                <g transform="matrix(18,0,0,18,1921.69,57.2841)">
                    <path d="M0.179,0L0.279,0L0.279,-0.415L0.439,-0.415L0.439,-0.5L0.019,-0.5L0.019,-0.415L0.179,-0.415L0.179,0Z" style="fill-rule:nonzero;"/>
                </g>
                <g transform="matrix(18,0,0,18,1929.93,57.2841)">
                    <path d="M0.074,0L0.306,0C0.417,0 0.494,-0.048 0.494,-0.149C0.494,-0.204 0.46,-0.246 0.399,-0.264C0.446,-0.283 0.474,-0.32 0.474,-0.369C0.474,-0.455 0.401,-0.5 0.295,-0.5L0.074,-0.5L0.074,0ZM0.174,-0.3L0.174,-0.42L0.295,-0.42C0.34,-0.42 0.369,-0.403 0.369,-0.361C0.369,-0.32 0.343,-0.3 0.295,-0.3L0.174,-0.3ZM0.174,-0.08L0.174,-0.22L0.299,-0.22C0.357,-0.22 0.389,-0.197 0.389,-0.15C0.389,-0.1 0.354,-0.08 0.299,-0.08L0.174,-0.08Z" style="fill-rule:nonzero;"/>
                </g>
                <g transform="matrix(18,0,0,18,1939.62,57.2841)">
                    <path d="M0.297,0.01C0.456,0.01 0.551,-0.108 0.551,-0.251C0.551,-0.394 0.456,-0.51 0.297,-0.51C0.137,-0.51 0.043,-0.394 0.043,-0.251C0.043,-0.108 0.137,0.01 0.297,0.01ZM0.297,-0.075C0.192,-0.075 0.143,-0.154 0.143,-0.251C0.143,-0.346 0.192,-0.425 0.297,-0.425C0.402,-0.425 0.451,-0.346 0.451,-0.251C0.451,-0.154 0.402,-0.075 0.297,-0.075Z" style="fill-rule:nonzero;"/>
                </g>
                <g transform="matrix(18,0,0,18,1950.13,57.2841)">
                    <path d="M0.068,0.141L0.138,0.141L0.188,-0.02L0.188,-0.12L0.068,-0.12L0.068,0.141Z" style="fill-rule:nonzero;"/>
                </g>
                <g transform="matrix(18,0,0,18,1959.31,57.2841)">
                    <path d="M0.074,0L0.174,0L0.174,-0.415L0.404,-0.415L0.404,0L0.504,0L0.504,-0.5L0.074,-0.5L0.074,0Z" style="fill-rule:nonzero;"/>
                </g>
                <g transform="matrix(18,0,0,18,1969.71,57.2841)">
                    <path d="M0.297,0.01C0.456,0.01 0.551,-0.108 0.551,-0.251C0.551,-0.394 0.456,-0.51 0.297,-0.51C0.137,-0.51 0.043,-0.394 0.043,-0.251C0.043,-0.108 0.137,0.01 0.297,0.01ZM0.297,-0.075C0.192,-0.075 0.143,-0.154 0.143,-0.251C0.143,-0.346 0.192,-0.425 0.297,-0.425C0.402,-0.425 0.451,-0.346 0.451,-0.251C0.451,-0.154 0.402,-0.075 0.297,-0.075Z" style="fill-rule:nonzero;"/>
                </g>
                <g transform="matrix(18,0,0,18,1984.98,57.2841)">
                    <path d="M0.297,0.01C0.456,0.01 0.551,-0.108 0.551,-0.251C0.551,-0.394 0.456,-0.51 0.297,-0.51C0.137,-0.51 0.043,-0.394 0.043,-0.251C0.043,-0.108 0.137,0.01 0.297,0.01ZM0.297,-0.075C0.192,-0.075 0.143,-0.154 0.143,-0.251C0.143,-0.346 0.192,-0.425 0.297,-0.425C0.402,-0.425 0.451,-0.346 0.451,-0.251C0.451,-0.154 0.402,-0.075 0.297,-0.075Z" style="fill-rule:nonzero;"/>
                </g>
                <g transform="matrix(18,0,0,18,1995.67,57.2841)">
                    <path d="M0.074,0L0.174,0L0.174,-0.415L0.404,-0.415L0.404,0L0.504,0L0.504,-0.5L0.074,-0.5L0.074,0Z" style="fill-rule:nonzero;"/>
                </g>
                <g transform="matrix(18,0,0,18,2006.07,57.2841)">
                    <path d="M0.074,0.25L0.174,0.25L0.174,-0.078C0.212,-0.024 0.271,0.01 0.348,0.01C0.495,0.01 0.582,-0.108 0.582,-0.251C0.582,-0.394 0.495,-0.51 0.348,-0.51C0.271,-0.51 0.211,-0.476 0.173,-0.421L0.164,-0.5L0.074,-0.5L0.074,0.25ZM0.328,-0.075C0.233,-0.075 0.174,-0.154 0.174,-0.251C0.174,-0.347 0.233,-0.425 0.328,-0.425C0.433,-0.425 0.482,-0.347 0.482,-0.251C0.482,-0.154 0.433,-0.075 0.328,-0.075Z" style="fill-rule:nonzero;"/>
                </g>
                <g transform="matrix(18,0,0,18,2017.34,57.2841)">
                    <path d="M0.303,0.01C0.46,0.01 0.51,-0.072 0.51,-0.072L0.51,-0.137L0.445,-0.137C0.445,-0.137 0.417,-0.076 0.303,-0.076C0.202,-0.076 0.149,-0.138 0.144,-0.236L0.516,-0.236C0.516,-0.236 0.52,-0.259 0.52,-0.29C0.52,-0.416 0.452,-0.51 0.291,-0.51C0.131,-0.51 0.044,-0.394 0.044,-0.251C0.044,-0.098 0.132,0.01 0.303,0.01ZM0.149,-0.311C0.163,-0.377 0.202,-0.425 0.292,-0.425C0.38,-0.425 0.422,-0.376 0.422,-0.311L0.149,-0.311Z" style="fill-rule:nonzero;"/>
                </g>
                <g transform="matrix(18,0,0,18,2027.51,57.2841)">
                    <path d="M0.013,0.14L0.103,0.14L0.103,0L0.496,0L0.496,0.14L0.586,0.14L0.586,-0.08L0.506,-0.08L0.506,-0.5L0.135,-0.5L0.117,-0.26C0.11,-0.16 0.095,-0.1 0.067,-0.08L0.013,-0.08L0.013,0.14ZM0.168,-0.08C0.189,-0.119 0.2,-0.173 0.205,-0.243L0.218,-0.42L0.406,-0.42L0.406,-0.08L0.168,-0.08Z" style="fill-rule:nonzero;"/>
                </g>
                <g transform="matrix(18,0,0,18,2038.44,57.2841)">
                    <path d="M0.303,0.01C0.46,0.01 0.51,-0.072 0.51,-0.072L0.51,-0.137L0.445,-0.137C0.445,-0.137 0.417,-0.076 0.303,-0.076C0.202,-0.076 0.149,-0.138 0.144,-0.236L0.516,-0.236C0.516,-0.236 0.52,-0.259 0.52,-0.29C0.52,-0.416 0.452,-0.51 0.291,-0.51C0.131,-0.51 0.044,-0.394 0.044,-0.251C0.044,-0.098 0.132,0.01 0.303,0.01ZM0.149,-0.311C0.163,-0.377 0.202,-0.425 0.292,-0.425C0.38,-0.425 0.422,-0.376 0.422,-0.311L0.149,-0.311Z" style="fill-rule:nonzero;"/>
                </g>
                <g transform="matrix(18,0,0,18,2048.61,57.2841)">
                    <path d="M0.015,0L0.052,0C0.159,0 0.201,-0.093 0.205,-0.218L0.211,-0.42L0.375,-0.42L0.375,0L0.475,0L0.475,-0.5L0.123,-0.5L0.116,-0.229C0.113,-0.124 0.089,-0.091 0.026,-0.087L0.015,-0.087L0.015,0Z" style="fill-rule:nonzero;"/>
                </g>
                <g transform="matrix(18,0,0,18,2058.49,57.2841)">
                    <path d="M0.303,0.01C0.46,0.01 0.51,-0.072 0.51,-0.072L0.51,-0.137L0.445,-0.137C0.445,-0.137 0.417,-0.076 0.303,-0.076C0.202,-0.076 0.149,-0.138 0.144,-0.236L0.516,-0.236C0.516,-0.236 0.52,-0.259 0.52,-0.29C0.52,-0.416 0.452,-0.51 0.291,-0.51C0.131,-0.51 0.044,-0.394 0.044,-0.251C0.044,-0.098 0.132,0.01 0.303,0.01ZM0.149,-0.311C0.163,-0.377 0.202,-0.425 0.292,-0.425C0.38,-0.425 0.422,-0.376 0.422,-0.311L0.149,-0.311Z" style="fill-rule:nonzero;"/>
                </g>
                <g transform="matrix(18,0,0,18,2068.66,57.2841)">
                    <path d="M0.074,0L0.174,0L0.174,-0.215L0.414,-0.215L0.414,0L0.514,0L0.514,-0.5L0.414,-0.5L0.414,-0.3L0.174,-0.3L0.174,-0.5L0.074,-0.5L0.074,0Z" style="fill-rule:nonzero;"/>
                </g>
                <g transform="matrix(18,0,0,18,2079.24,57.2841)">
                    <path d="M0.074,0L0.164,0L0.424,-0.352L0.424,0L0.524,0L0.524,-0.5L0.434,-0.5L0.174,-0.149L0.174,-0.5L0.074,-0.5L0.074,0Z" style="fill-rule:nonzero;"/>
                </g>
                <g transform="matrix(18,0,0,18,2090.01,57.2841)">
                    <path d="M0.498,0.01C0.651,0.01 0.742,-0.108 0.742,-0.251C0.742,-0.394 0.651,-0.51 0.498,-0.51C0.362,-0.51 0.276,-0.419 0.258,-0.3L0.174,-0.3L0.174,-0.5L0.074,-0.5L0.074,0L0.174,0L0.174,-0.22L0.255,-0.22C0.268,-0.091 0.355,0.01 0.498,0.01ZM0.498,-0.08C0.399,-0.08 0.354,-0.157 0.354,-0.251C0.354,-0.344 0.399,-0.42 0.498,-0.42C0.597,-0.42 0.642,-0.344 0.642,-0.251C0.642,-0.157 0.597,-0.08 0.498,-0.08Z" style="fill-rule:nonzero;"/>
                </g>
                <g transform="matrix(18,0,0,18,2103.96,57.2841)">
                    <path d="M0.068,0.141L0.138,0.141L0.188,-0.02L0.188,-0.12L0.068,-0.12L0.068,0.141Z" style="fill-rule:nonzero;"/>
                </g>
                <g transform="matrix(18,0,0,18,2113.14,57.2841)">
                    <path d="M0.074,0.25L0.174,0.25L0.174,-0.078C0.212,-0.024 0.271,0.01 0.348,0.01C0.495,0.01 0.582,-0.108 0.582,-0.251C0.582,-0.394 0.495,-0.51 0.348,-0.51C0.271,-0.51 0.211,-0.476 0.173,-0.421L0.164,-0.5L0.074,-0.5L0.074,0.25ZM0.328,-0.075C0.233,-0.075 0.174,-0.154 0.174,-0.251C0.174,-0.347 0.233,-0.425 0.328,-0.425C0.433,-0.425 0.482,-0.347 0.482,-0.251C0.482,-0.154 0.433,-0.075 0.328,-0.075Z" style="fill-rule:nonzero;"/>
                </g>
                <g transform="matrix(18,0,0,18,2124.41,57.2841)">
                    <path d="M0.207,0.01C0.289,0.01 0.337,-0.036 0.362,-0.072L0.374,0L0.454,0L0.454,-0.309C0.454,-0.441 0.383,-0.51 0.249,-0.51C0.115,-0.51 0.068,-0.429 0.068,-0.429L0.068,-0.364L0.133,-0.364C0.133,-0.364 0.163,-0.425 0.246,-0.425C0.323,-0.425 0.354,-0.386 0.354,-0.311L0.354,-0.28C0.354,-0.28 0.303,-0.294 0.24,-0.294C0.096,-0.294 0.038,-0.23 0.038,-0.145C0.038,-0.059 0.095,0.01 0.207,0.01ZM0.223,-0.071C0.166,-0.071 0.136,-0.094 0.136,-0.145C0.136,-0.182 0.159,-0.218 0.24,-0.218C0.307,-0.218 0.354,-0.204 0.354,-0.204L0.354,-0.178C0.354,-0.131 0.305,-0.071 0.223,-0.071Z" style="fill-rule:nonzero;"/>
                </g>
                <g transform="matrix(18,0,0,18,2133.82,57.2841)">
                    <path d="M0.297,0.01C0.453,0.01 0.489,-0.082 0.489,-0.082L0.489,-0.147L0.424,-0.147C0.424,-0.147 0.408,-0.075 0.297,-0.075C0.192,-0.075 0.143,-0.154 0.143,-0.251C0.143,-0.347 0.192,-0.426 0.297,-0.426C0.403,-0.426 0.423,-0.354 0.423,-0.354L0.488,-0.354L0.488,-0.419C0.488,-0.419 0.454,-0.511 0.297,-0.511C0.137,-0.511 0.043,-0.394 0.043,-0.251C0.043,-0.108 0.127,0.01 0.297,0.01Z" style="fill-rule:nonzero;"/>
                </g>
                <g transform="matrix(18,0,0,18,2143.45,57.2841)">
                    <path d="M0.297,0.01C0.453,0.01 0.489,-0.082 0.489,-0.082L0.489,-0.147L0.424,-0.147C0.424,-0.147 0.408,-0.075 0.297,-0.075C0.192,-0.075 0.143,-0.154 0.143,-0.251C0.143,-0.347 0.192,-0.426 0.297,-0.426C0.403,-0.426 0.423,-0.354 0.423,-0.354L0.488,-0.354L0.488,-0.419C0.488,-0.419 0.454,-0.511 0.297,-0.511C0.137,-0.511 0.043,-0.394 0.043,-0.251C0.043,-0.108 0.127,0.01 0.297,0.01Z" style="fill-rule:nonzero;"/>
                </g>
                <g transform="matrix(18,0,0,18,2153.08,57.2841)">
                    <path d="M0.318,-0.12L0.383,-0.12L0.533,-0.35L0.533,0L0.633,0L0.633,-0.5L0.523,-0.5L0.355,-0.235L0.184,-0.5L0.074,-0.5L0.074,0L0.169,0L0.169,-0.348L0.318,-0.12Z" style="fill-rule:nonzero;"/>
                </g>
                <g transform="matrix(18,0,0,18,2165.81,57.2841)">
                    <path d="M0.207,0.01C0.289,0.01 0.337,-0.036 0.362,-0.072L0.374,0L0.454,0L0.454,-0.309C0.454,-0.441 0.383,-0.51 0.249,-0.51C0.115,-0.51 0.068,-0.429 0.068,-0.429L0.068,-0.364L0.133,-0.364C0.133,-0.364 0.163,-0.425 0.246,-0.425C0.323,-0.425 0.354,-0.386 0.354,-0.311L0.354,-0.28C0.354,-0.28 0.303,-0.294 0.24,-0.294C0.096,-0.294 0.038,-0.23 0.038,-0.145C0.038,-0.059 0.095,0.01 0.207,0.01ZM0.223,-0.071C0.166,-0.071 0.136,-0.094 0.136,-0.145C0.136,-0.182 0.159,-0.218 0.24,-0.218C0.307,-0.218 0.354,-0.204 0.354,-0.204L0.354,-0.178C0.354,-0.131 0.305,-0.071 0.223,-0.071Z" style="fill-rule:nonzero;"/>
                </g>
                <g transform="matrix(18,0,0,18,2175.06,57.2841)">
                    <path d="M0.179,0L0.279,0L0.279,-0.415L0.439,-0.415L0.439,-0.5L0.019,-0.5L0.019,-0.415L0.179,-0.415L0.179,0Z" style="fill-rule:nonzero;"/>
                </g>
                <g transform="matrix(18,0,0,18,2183.3,57.2841)">
                    <path d="M0.074,0.25L0.174,0.25L0.174,-0.078C0.212,-0.024 0.271,0.01 0.348,0.01C0.495,0.01 0.582,-0.108 0.582,-0.251C0.582,-0.394 0.495,-0.51 0.348,-0.51C0.271,-0.51 0.211,-0.476 0.173,-0.421L0.164,-0.5L0.074,-0.5L0.074,0.25ZM0.328,-0.075C0.233,-0.075 0.174,-0.154 0.174,-0.251C0.174,-0.347 0.233,-0.425 0.328,-0.425C0.433,-0.425 0.482,-0.347 0.482,-0.251C0.482,-0.154 0.433,-0.075 0.328,-0.075Z" style="fill-rule:nonzero;"/>
                </g>
                <g transform="matrix(18,0,0,18,2194.57,57.2841)">
                    <path d="M0.074,0L0.164,0L0.424,-0.352L0.424,0L0.524,0L0.524,-0.5L0.434,-0.5L0.174,-0.149L0.174,-0.5L0.074,-0.5L0.074,0Z" style="fill-rule:nonzero;"/>
                </g>
                <g transform="matrix(18,0,0,18,2205.33,57.2841)">
                    <path d="M0.074,0L0.306,0C0.417,0 0.494,-0.048 0.494,-0.149C0.494,-0.204 0.46,-0.246 0.399,-0.264C0.446,-0.283 0.474,-0.32 0.474,-0.369C0.474,-0.455 0.401,-0.5 0.295,-0.5L0.074,-0.5L0.074,0ZM0.174,-0.3L0.174,-0.42L0.295,-0.42C0.34,-0.42 0.369,-0.403 0.369,-0.361C0.369,-0.32 0.343,-0.3 0.295,-0.3L0.174,-0.3ZM0.174,-0.08L0.174,-0.22L0.299,-0.22C0.357,-0.22 0.389,-0.197 0.389,-0.15C0.389,-0.1 0.354,-0.08 0.299,-0.08L0.174,-0.08Z" style="fill-rule:nonzero;"/>
                </g>
                <g transform="matrix(18,0,0,18,2215.02,57.2841)">
                    <path d="M0.207,0.01C0.289,0.01 0.337,-0.036 0.362,-0.072L0.374,0L0.454,0L0.454,-0.309C0.454,-0.441 0.383,-0.51 0.249,-0.51C0.115,-0.51 0.068,-0.429 0.068,-0.429L0.068,-0.364L0.133,-0.364C0.133,-0.364 0.163,-0.425 0.246,-0.425C0.323,-0.425 0.354,-0.386 0.354,-0.311L0.354,-0.28C0.354,-0.28 0.303,-0.294 0.24,-0.294C0.096,-0.294 0.038,-0.23 0.038,-0.145C0.038,-0.059 0.095,0.01 0.207,0.01ZM0.223,-0.071C0.166,-0.071 0.136,-0.094 0.136,-0.145C0.136,-0.182 0.159,-0.218 0.24,-0.218C0.307,-0.218 0.354,-0.204 0.354,-0.204L0.354,-0.178C0.354,-0.131 0.305,-0.071 0.223,-0.071Z" style="fill-rule:nonzero;"/>
                </g>
                <g transform="matrix(18,0,0,18,2224.43,57.2841)">
                    <path d="M0.303,0.01C0.46,0.01 0.51,-0.072 0.51,-0.072L0.51,-0.137L0.445,-0.137C0.445,-0.137 0.417,-0.076 0.303,-0.076C0.202,-0.076 0.149,-0.138 0.144,-0.236L0.516,-0.236C0.516,-0.236 0.52,-0.259 0.52,-0.29C0.52,-0.416 0.452,-0.51 0.291,-0.51C0.131,-0.51 0.044,-0.394 0.044,-0.251C0.044,-0.098 0.132,0.01 0.303,0.01ZM0.149,-0.311C0.163,-0.377 0.202,-0.425 0.292,-0.425C0.38,-0.425 0.422,-0.376 0.422,-0.311L0.149,-0.311Z" style="fill-rule:nonzero;"/>
                </g>
                <g transform="matrix(18,0,0,18,2234.4,57.2841)">
                    <path d="M0.179,0L0.279,0L0.279,-0.415L0.439,-0.415L0.439,-0.5L0.019,-0.5L0.019,-0.415L0.179,-0.415L0.179,0Z" style="fill-rule:nonzero;"/>
                </g>
                <g transform="matrix(18,0,0,18,2242.4,57.2841)">
                    <path d="M0.297,0.01C0.453,0.01 0.489,-0.082 0.489,-0.082L0.489,-0.147L0.424,-0.147C0.424,-0.147 0.408,-0.075 0.297,-0.075C0.192,-0.075 0.143,-0.154 0.143,-0.251C0.143,-0.347 0.192,-0.426 0.297,-0.426C0.403,-0.426 0.423,-0.354 0.423,-0.354L0.488,-0.354L0.488,-0.419C0.488,-0.419 0.454,-0.511 0.297,-0.511C0.137,-0.511 0.043,-0.394 0.043,-0.251C0.043,-0.108 0.127,0.01 0.297,0.01Z" style="fill-rule:nonzero;"/>
                </g>
                <g transform="matrix(18,0,0,18,2252.03,57.2841)">
                    <path d="M0.354,-0.184L0.354,0L0.454,0L0.454,-0.5L0.255,-0.5C0.117,-0.5 0.055,-0.428 0.055,-0.339C0.055,-0.263 0.101,-0.216 0.176,-0.196L0.044,-0.065L0.044,0L0.114,0L0.29,-0.184L0.354,-0.184ZM0.262,-0.259C0.197,-0.259 0.16,-0.285 0.16,-0.338C0.16,-0.396 0.2,-0.42 0.262,-0.42L0.354,-0.42L0.354,-0.259L0.262,-0.259Z" style="fill-rule:nonzero;"/>
                </g>
                <g transform="matrix(18,0,0,18,2266.1,57.2841)">
                    <path d="M0.233,0.01C0.367,0.01 0.436,-0.048 0.436,-0.142C0.436,-0.198 0.403,-0.241 0.346,-0.261C0.391,-0.283 0.418,-0.322 0.418,-0.372C0.418,-0.462 0.347,-0.51 0.235,-0.51C0.142,-0.51 0.083,-0.48 0.049,-0.429L0.049,-0.364L0.114,-0.364C0.133,-0.404 0.171,-0.425 0.228,-0.425C0.285,-0.425 0.317,-0.402 0.317,-0.358C0.317,-0.315 0.291,-0.293 0.232,-0.293L0.151,-0.293L0.151,-0.213L0.235,-0.213C0.306,-0.213 0.335,-0.19 0.335,-0.148C0.335,-0.1 0.302,-0.075 0.231,-0.075C0.173,-0.075 0.132,-0.094 0.109,-0.137L0.044,-0.137L0.044,-0.072C0.081,-0.019 0.148,0.01 0.233,0.01Z" style="fill-rule:nonzero;"/>
                </g>
                <g transform="matrix(18,0,0,18,2274.74,57.2841)">
                    <path d="M0.207,0.01C0.289,0.01 0.337,-0.036 0.362,-0.072L0.374,0L0.454,0L0.454,-0.309C0.454,-0.441 0.383,-0.51 0.249,-0.51C0.115,-0.51 0.068,-0.429 0.068,-0.429L0.068,-0.364L0.133,-0.364C0.133,-0.364 0.163,-0.425 0.246,-0.425C0.323,-0.425 0.354,-0.386 0.354,-0.311L0.354,-0.28C0.354,-0.28 0.303,-0.294 0.24,-0.294C0.096,-0.294 0.038,-0.23 0.038,-0.145C0.038,-0.059 0.095,0.01 0.207,0.01ZM0.223,-0.071C0.166,-0.071 0.136,-0.094 0.136,-0.145C0.136,-0.182 0.159,-0.218 0.24,-0.218C0.307,-0.218 0.354,-0.204 0.354,-0.204L0.354,-0.178C0.354,-0.131 0.305,-0.071 0.223,-0.071Z" style="fill-rule:nonzero;"/>
                </g>
                <g transform="matrix(18,0,0,18,2284.16,57.2841)">
                    <path d="M0.074,0L0.174,0L0.174,-0.243L0.413,0L0.483,0L0.483,-0.07L0.289,-0.263L0.468,-0.435L0.468,-0.5L0.403,-0.5L0.174,-0.274L0.174,-0.5L0.074,-0.5L0.074,0Z" style="fill-rule:nonzero;"/>
                </g>
                <g transform="matrix(18,0,0,18,2293.17,57.2841)">
                    <path d="M0.297,0.01C0.456,0.01 0.551,-0.108 0.551,-0.251C0.551,-0.394 0.456,-0.51 0.297,-0.51C0.137,-0.51 0.043,-0.394 0.043,-0.251C0.043,-0.108 0.137,0.01 0.297,0.01ZM0.297,-0.075C0.192,-0.075 0.143,-0.154 0.143,-0.251C0.143,-0.346 0.192,-0.425 0.297,-0.425C0.402,-0.425 0.451,-0.346 0.451,-0.251C0.451,-0.154 0.402,-0.075 0.297,-0.075Z" style="fill-rule:nonzero;"/>
                </g>
                <g transform="matrix(18,0,0,18,2303.87,57.2841)">
                    <path d="M0.074,0L0.174,0L0.174,-0.215L0.414,-0.215L0.414,0L0.514,0L0.514,-0.5L0.414,-0.5L0.414,-0.3L0.174,-0.3L0.174,-0.5L0.074,-0.5L0.074,0Z" style="fill-rule:nonzero;"/>
                </g>
                <g transform="matrix(18,0,0,18,2314.45,57.2841)">
                    <path d="M0.297,0.01C0.456,0.01 0.551,-0.108 0.551,-0.251C0.551,-0.394 0.456,-0.51 0.297,-0.51C0.137,-0.51 0.043,-0.394 0.043,-0.251C0.043,-0.108 0.137,0.01 0.297,0.01ZM0.297,-0.075C0.192,-0.075 0.143,-0.154 0.143,-0.251C0.143,-0.346 0.192,-0.425 0.297,-0.425C0.402,-0.425 0.451,-0.346 0.451,-0.251C0.451,-0.154 0.402,-0.075 0.297,-0.075Z" style="fill-rule:nonzero;"/>
                </g>
                <g transform="matrix(18,0,0,18,2324.96,57.2841)">
                    <path d="M0.013,0.14L0.103,0.14L0.103,0L0.496,0L0.496,0.14L0.586,0.14L0.586,-0.08L0.506,-0.08L0.506,-0.5L0.135,-0.5L0.117,-0.26C0.11,-0.16 0.095,-0.1 0.067,-0.08L0.013,-0.08L0.013,0.14ZM0.168,-0.08C0.189,-0.119 0.2,-0.173 0.205,-0.243L0.218,-0.42L0.406,-0.42L0.406,-0.08L0.168,-0.08Z" style="fill-rule:nonzero;"/>
                </g>
                <g transform="matrix(18,0,0,18,2336.05,57.2841)">
                    <path d="M0.207,0.01C0.289,0.01 0.337,-0.036 0.362,-0.072L0.374,0L0.454,0L0.454,-0.309C0.454,-0.441 0.383,-0.51 0.249,-0.51C0.115,-0.51 0.068,-0.429 0.068,-0.429L0.068,-0.364L0.133,-0.364C0.133,-0.364 0.163,-0.425 0.246,-0.425C0.323,-0.425 0.354,-0.386 0.354,-0.311L0.354,-0.28C0.354,-0.28 0.303,-0.294 0.24,-0.294C0.096,-0.294 0.038,-0.23 0.038,-0.145C0.038,-0.059 0.095,0.01 0.207,0.01ZM0.223,-0.071C0.166,-0.071 0.136,-0.094 0.136,-0.145C0.136,-0.182 0.159,-0.218 0.24,-0.218C0.307,-0.218 0.354,-0.204 0.354,-0.204L0.354,-0.178C0.354,-0.131 0.305,-0.071 0.223,-0.071Z" style="fill-rule:nonzero;"/>
                </g>
                <g transform="matrix(18,0,0,18,2345.3,57.2841)">
                    <path d="M0.179,0L0.279,0L0.279,-0.415L0.439,-0.415L0.439,-0.5L0.019,-0.5L0.019,-0.415L0.179,-0.415L0.179,0Z" style="fill-rule:nonzero;"/>
                </g>
                <g transform="matrix(18,0,0,18,2353.29,57.2841)">
                    <path d="M0.303,0.01C0.46,0.01 0.51,-0.072 0.51,-0.072L0.51,-0.137L0.445,-0.137C0.445,-0.137 0.417,-0.076 0.303,-0.076C0.202,-0.076 0.149,-0.138 0.144,-0.236L0.516,-0.236C0.516,-0.236 0.52,-0.259 0.52,-0.29C0.52,-0.416 0.452,-0.51 0.291,-0.51C0.131,-0.51 0.044,-0.394 0.044,-0.251C0.044,-0.098 0.132,0.01 0.303,0.01ZM0.149,-0.311C0.163,-0.377 0.202,-0.425 0.292,-0.425C0.38,-0.425 0.422,-0.376 0.422,-0.311L0.149,-0.311Z" style="fill-rule:nonzero;"/>
                </g>
                <g transform="matrix(18,0,0,18,2363.46,57.2841)">
                    <path d="M0.015,0L0.052,0C0.159,0 0.201,-0.093 0.205,-0.218L0.211,-0.42L0.375,-0.42L0.375,0L0.475,0L0.475,-0.5L0.123,-0.5L0.116,-0.229C0.113,-0.124 0.089,-0.091 0.026,-0.087L0.015,-0.087L0.015,0Z" style="fill-rule:nonzero;"/>
                </g>
                <g transform="matrix(18,0,0,18,2373.35,57.2841)">
                    <path d="M0.074,0L0.273,0C0.415,0 0.479,-0.074 0.479,-0.169C0.479,-0.261 0.414,-0.33 0.274,-0.33L0.174,-0.33L0.174,-0.5L0.074,-0.5L0.074,0ZM0.174,-0.08L0.174,-0.25L0.266,-0.25C0.335,-0.25 0.374,-0.223 0.374,-0.168C0.374,-0.105 0.332,-0.08 0.266,-0.08L0.174,-0.08Z" style="fill-rule:nonzero;"/>
                </g>
                <g transform="matrix(18,0,0,18,2382.49,57.2841)">
                    <path d="M0.074,0L0.174,0L0.174,-0.215L0.414,-0.215L0.414,0L0.514,0L0.514,-0.5L0.414,-0.5L0.414,-0.3L0.174,-0.3L0.174,-0.5L0.074,-0.5L0.074,0Z" style="fill-rule:nonzero;"/>
                </g>
                <g transform="matrix(18,0,0,18,2393.07,57.2841)">
                    <path d="M0.074,0L0.273,0C0.415,0 0.479,-0.074 0.479,-0.169C0.479,-0.261 0.414,-0.33 0.274,-0.33L0.174,-0.33L0.174,-0.5L0.074,-0.5L0.074,0ZM0.554,0L0.654,0L0.654,-0.5L0.554,-0.5L0.554,0ZM0.174,-0.08L0.174,-0.25L0.266,-0.25C0.335,-0.25 0.374,-0.223 0.374,-0.168C0.374,-0.105 0.332,-0.08 0.266,-0.08L0.174,-0.08Z" style="fill-rule:nonzero;"/>
                </g>
                <g transform="matrix(18,0,0,18,2406.18,57.2841)">
                    <path d="M0.074,0L0.164,0L0.424,-0.352L0.424,0L0.524,0L0.524,-0.5L0.434,-0.5L0.174,-0.149L0.174,-0.5L0.074,-0.5L0.074,0ZM0.306,-0.574C0.438,-0.574 0.459,-0.664 0.459,-0.664L0.459,-0.72L0.384,-0.72C0.384,-0.72 0.367,-0.656 0.306,-0.656C0.239,-0.656 0.228,-0.72 0.228,-0.72L0.153,-0.72L0.153,-0.664C0.153,-0.664 0.174,-0.574 0.306,-0.574Z" style="fill-rule:nonzero;"/>
                </g>
                <g transform="matrix(18,0,0,18,1838.26,75.2841)">
                    <path d="M0.013,0.14L0.103,0.14L0.103,0L0.496,0L0.496,0.14L0.586,0.14L0.586,-0.08L0.506,-0.08L0.506,-0.5L0.135,-0.5L0.117,-0.26C0.11,-0.16 0.095,-0.1 0.067,-0.08L0.013,-0.08L0.013,0.14ZM0.168,-0.08C0.189,-0.119 0.2,-0.173 0.205,-0.243L0.218,-0.42L0.406,-0.42L0.406,-0.08L0.168,-0.08Z" style="fill-rule:nonzero;"/>
                </g>
                <g transform="matrix(18,0,0,18,1849.19,75.2841)">
                    <path d="M0.297,0.01C0.456,0.01 0.551,-0.108 0.551,-0.251C0.551,-0.394 0.456,-0.51 0.297,-0.51C0.137,-0.51 0.043,-0.394 0.043,-0.251C0.043,-0.108 0.137,0.01 0.297,0.01ZM0.297,-0.075C0.192,-0.075 0.143,-0.154 0.143,-0.251C0.143,-0.346 0.192,-0.425 0.297,-0.425C0.402,-0.425 0.451,-0.346 0.451,-0.251C0.451,-0.154 0.402,-0.075 0.297,-0.075Z" style="fill-rule:nonzero;"/>
                </g>
                <g transform="matrix(18,0,0,18,1859.88,75.2841)">
                    <path d="M0.318,-0.12L0.383,-0.12L0.533,-0.35L0.533,0L0.633,0L0.633,-0.5L0.523,-0.5L0.355,-0.235L0.184,-0.5L0.074,-0.5L0.074,0L0.169,0L0.169,-0.348L0.318,-0.12Z" style="fill-rule:nonzero;"/>
                </g>
                <g transform="matrix(18,0,0,18,1872.6,75.2841)">
                    <path d="M0.074,0L0.164,0L0.424,-0.352L0.424,0L0.524,0L0.524,-0.5L0.434,-0.5L0.174,-0.149L0.174,-0.5L0.074,-0.5L0.074,0Z" style="fill-rule:nonzero;"/>
                </g>
                <g transform="matrix(18,0,0,18,1883.37,75.2841)">
                    <path d="M0.074,0L0.174,0L0.174,-0.215L0.414,-0.215L0.414,0L0.514,0L0.514,-0.5L0.414,-0.5L0.414,-0.3L0.174,-0.3L0.174,-0.5L0.074,-0.5L0.074,0Z" style="fill-rule:nonzero;"/>
                </g>
                <g transform="matrix(18,0,0,18,1893.95,75.2841)">
                    <path d="M0.207,0.01C0.289,0.01 0.337,-0.036 0.362,-0.072L0.374,0L0.454,0L0.454,-0.309C0.454,-0.441 0.383,-0.51 0.249,-0.51C0.115,-0.51 0.068,-0.429 0.068,-0.429L0.068,-0.364L0.133,-0.364C0.133,-0.364 0.163,-0.425 0.246,-0.425C0.323,-0.425 0.354,-0.386 0.354,-0.311L0.354,-0.28C0.354,-0.28 0.303,-0.294 0.24,-0.294C0.096,-0.294 0.038,-0.23 0.038,-0.145C0.038,-0.059 0.095,0.01 0.207,0.01ZM0.223,-0.071C0.166,-0.071 0.136,-0.094 0.136,-0.145C0.136,-0.182 0.159,-0.218 0.24,-0.218C0.307,-0.218 0.354,-0.204 0.354,-0.204L0.354,-0.178C0.354,-0.131 0.305,-0.071 0.223,-0.071Z" style="fill-rule:nonzero;"/>
                </g>
                <g transform="matrix(18,0,0,18,1903.37,75.2841)">
                    <path d="M0.074,0L0.174,0L0.174,-0.215L0.414,-0.215L0.414,0L0.514,0L0.514,-0.5L0.414,-0.5L0.414,-0.3L0.174,-0.3L0.174,-0.5L0.074,-0.5L0.074,0Z" style="fill-rule:nonzero;"/>
                </g>
                <g transform="matrix(18,0,0,18,1913.95,75.2841)">
                    <path d="M0.179,0L0.279,0L0.279,-0.415L0.439,-0.415L0.439,-0.5L0.019,-0.5L0.019,-0.415L0.179,-0.415L0.179,0Z" style="fill-rule:nonzero;"/>
                </g>
                <g transform="matrix(18,0,0,18,1921.94,75.2841)">
                    <path d="M0.297,0.01C0.453,0.01 0.489,-0.082 0.489,-0.082L0.489,-0.147L0.424,-0.147C0.424,-0.147 0.408,-0.075 0.297,-0.075C0.192,-0.075 0.143,-0.154 0.143,-0.251C0.143,-0.347 0.192,-0.426 0.297,-0.426C0.403,-0.426 0.423,-0.354 0.423,-0.354L0.488,-0.354L0.488,-0.419C0.488,-0.419 0.454,-0.511 0.297,-0.511C0.137,-0.511 0.043,-0.394 0.043,-0.251C0.043,-0.108 0.127,0.01 0.297,0.01Z" style="fill-rule:nonzero;"/>
                </g>
                <g transform="matrix(18,0,0,18,1931.57,75.2841)">
                    <path d="M0.303,0.01C0.46,0.01 0.51,-0.072 0.51,-0.072L0.51,-0.137L0.445,-0.137C0.445,-0.137 0.417,-0.076 0.303,-0.076C0.202,-0.076 0.149,-0.138 0.144,-0.236L0.516,-0.236C0.516,-0.236 0.52,-0.259 0.52,-0.29C0.52,-0.416 0.452,-0.51 0.291,-0.51C0.131,-0.51 0.044,-0.394 0.044,-0.251C0.044,-0.098 0.132,0.01 0.303,0.01ZM0.149,-0.311C0.163,-0.377 0.202,-0.425 0.292,-0.425C0.38,-0.425 0.422,-0.376 0.422,-0.311L0.149,-0.311Z" style="fill-rule:nonzero;"/>
                </g>
                <g transform="matrix(18,0,0,18,1941.74,75.2841)">
                    <path d="M0.074,0L0.174,0L0.174,-0.415L0.404,-0.415L0.404,0L0.504,0L0.504,-0.5L0.074,-0.5L0.074,0Z" style="fill-rule:nonzero;"/>
                </g>
                <g transform="matrix(18,0,0,18,1952.15,75.2841)">
                    <path d="M0.179,0L0.279,0L0.279,-0.415L0.439,-0.415L0.439,-0.5L0.019,-0.5L0.019,-0.415L0.179,-0.415L0.179,0Z" style="fill-rule:nonzero;"/>
                </g>
                <g transform="matrix(18,0,0,18,1960.19,75.2841)">
                    <path d="M0.207,0.01C0.289,0.01 0.337,-0.036 0.362,-0.072L0.374,0L0.454,0L0.454,-0.309C0.454,-0.441 0.383,-0.51 0.249,-0.51C0.115,-0.51 0.068,-0.429 0.068,-0.429L0.068,-0.364L0.133,-0.364C0.133,-0.364 0.163,-0.425 0.246,-0.425C0.323,-0.425 0.354,-0.386 0.354,-0.311L0.354,-0.28C0.354,-0.28 0.303,-0.294 0.24,-0.294C0.096,-0.294 0.038,-0.23 0.038,-0.145C0.038,-0.059 0.095,0.01 0.207,0.01ZM0.223,-0.071C0.166,-0.071 0.136,-0.094 0.136,-0.145C0.136,-0.182 0.159,-0.218 0.24,-0.218C0.307,-0.218 0.354,-0.204 0.354,-0.204L0.354,-0.178C0.354,-0.131 0.305,-0.071 0.223,-0.071Z" style="fill-rule:nonzero;"/>
                </g>
                <g transform="matrix(18,0,0,18,1969.61,75.2841)">
                    <path d="M0.074,0L0.174,0L0.174,-0.243L0.413,0L0.483,0L0.483,-0.07L0.289,-0.263L0.468,-0.435L0.468,-0.5L0.403,-0.5L0.174,-0.274L0.174,-0.5L0.074,-0.5L0.074,0Z" style="fill-rule:nonzero;"/>
                </g>
                <g transform="matrix(18,0,0,18,1978.89,75.2841)">
                    <path d="M0.074,0L0.174,0L0.174,-0.243L0.413,0L0.483,0L0.483,-0.07L0.289,-0.263L0.468,-0.435L0.468,-0.5L0.403,-0.5L0.174,-0.274L0.174,-0.5L0.074,-0.5L0.074,0Z" style="fill-rule:nonzero;"/>
                </g>
                <g transform="matrix(18,0,0,18,1987.91,75.2841)">
                    <path d="M0.297,0.01C0.456,0.01 0.551,-0.108 0.551,-0.251C0.551,-0.394 0.456,-0.51 0.297,-0.51C0.137,-0.51 0.043,-0.394 0.043,-0.251C0.043,-0.108 0.137,0.01 0.297,0.01ZM0.297,-0.075C0.192,-0.075 0.143,-0.154 0.143,-0.251C0.143,-0.346 0.192,-0.425 0.297,-0.425C0.402,-0.425 0.451,-0.346 0.451,-0.251C0.451,-0.154 0.402,-0.075 0.297,-0.075Z" style="fill-rule:nonzero;"/>
                </g>
                <g transform="matrix(18,0,0,18,1998.6,75.2841)">
                    <path d="M0.074,0.25L0.174,0.25L0.174,-0.078C0.212,-0.024 0.271,0.01 0.348,0.01C0.495,0.01 0.582,-0.108 0.582,-0.251C0.582,-0.394 0.495,-0.51 0.348,-0.51C0.271,-0.51 0.211,-0.476 0.173,-0.421L0.164,-0.5L0.074,-0.5L0.074,0.25ZM0.328,-0.075C0.233,-0.075 0.174,-0.154 0.174,-0.251C0.174,-0.347 0.233,-0.425 0.328,-0.425C0.433,-0.425 0.482,-0.347 0.482,-0.251C0.482,-0.154 0.433,-0.075 0.328,-0.075Z" style="fill-rule:nonzero;"/>
                </g>
                <g transform="matrix(18,0,0,18,2009.69,75.2841)">
                    <path d="M0.013,0.14L0.103,0.14L0.103,0L0.496,0L0.496,0.14L0.586,0.14L0.586,-0.08L0.506,-0.08L0.506,-0.5L0.135,-0.5L0.117,-0.26C0.11,-0.16 0.095,-0.1 0.067,-0.08L0.013,-0.08L0.013,0.14ZM0.168,-0.08C0.189,-0.119 0.2,-0.173 0.205,-0.243L0.218,-0.42L0.406,-0.42L0.406,-0.08L0.168,-0.08Z" style="fill-rule:nonzero;"/>
                </g>
            </g>
            <g transform="matrix(1.0553,0,0,1.70202,-2799.17,124.226)">
                <rect x="2691.93" y="210.043" width="631.788" height="402.773" style="fill:none;stroke:black;stroke-width:2.07px;"/>
            </g>
            <g transform="matrix(1.04167,0,0,1.85278,41.6667,357.586)">
                <g transform="matrix(36,0,0,36,0,27)">
                    <path d="M0.008,0.15L0.108,0.15L0.108,0L0.648,0L0.648,0.15L0.748,0.15L0.748,-0.09L0.648,-0.09L0.648,-0.75L0.179,-0.75L0.165,-0.424C0.155,-0.184 0.067,-0.09 0.067,-0.09L0.008,-0.09L0.008,0.15ZM0.179,-0.09C0.179,-0.09 0.253,-0.174 0.264,-0.424L0.274,-0.66L0.538,-0.66L0.538,-0.09L0.179,-0.09Z" style="fill-rule:nonzero;"/>
                </g>
                <g transform="matrix(36,0,0,36,28.08,27)">
                    <path d="M0.207,0.01C0.289,0.01 0.337,-0.036 0.362,-0.072L0.374,0L0.454,0L0.454,-0.309C0.454,-0.441 0.383,-0.51 0.249,-0.51C0.115,-0.51 0.068,-0.429 0.068,-0.429L0.068,-0.364L0.133,-0.364C0.133,-0.364 0.163,-0.425 0.246,-0.425C0.323,-0.425 0.354,-0.386 0.354,-0.311L0.354,-0.28C0.354,-0.28 0.303,-0.294 0.24,-0.294C0.096,-0.294 0.038,-0.23 0.038,-0.145C0.038,-0.059 0.095,0.01 0.207,0.01ZM0.223,-0.071C0.166,-0.071 0.136,-0.094 0.136,-0.145C0.136,-0.182 0.159,-0.218 0.24,-0.218C0.307,-0.218 0.354,-0.204 0.354,-0.204L0.354,-0.178C0.354,-0.131 0.305,-0.071 0.223,-0.071Z" style="fill-rule:nonzero;"/>
                </g>
                <g transform="matrix(36,0,0,36,46.584,27)">
                    <path d="M0.179,0L0.279,0L0.279,-0.415L0.439,-0.415L0.439,-0.5L0.019,-0.5L0.019,-0.415L0.179,-0.415L0.179,0Z" style="fill-rule:nonzero;"/>
                </g>
                <g transform="matrix(36,0,0,36,62.676,27)">
                    <path d="M0.207,0.01C0.289,0.01 0.337,-0.036 0.362,-0.072L0.374,0L0.454,0L0.454,-0.309C0.454,-0.441 0.383,-0.51 0.249,-0.51C0.115,-0.51 0.068,-0.429 0.068,-0.429L0.068,-0.364L0.133,-0.364C0.133,-0.364 0.163,-0.425 0.246,-0.425C0.323,-0.425 0.354,-0.386 0.354,-0.311L0.354,-0.28C0.354,-0.28 0.303,-0.294 0.24,-0.294C0.096,-0.294 0.038,-0.23 0.038,-0.145C0.038,-0.059 0.095,0.01 0.207,0.01ZM0.223,-0.071C0.166,-0.071 0.136,-0.094 0.136,-0.145C0.136,-0.182 0.159,-0.218 0.24,-0.218C0.307,-0.218 0.354,-0.204 0.354,-0.204L0.354,-0.178C0.354,-0.131 0.305,-0.071 0.223,-0.071Z" style="fill-rule:nonzero;"/>
                </g>
                <g transform="matrix(36,0,0,36,81.504,27)">
                    <path d="M0.066,-0.38L0.186,-0.38L0.186,-0.5L0.066,-0.5L0.066,-0.38ZM0.066,0L0.186,0L0.186,-0.12L0.066,-0.12L0.066,0Z" style="fill-rule:nonzero;"/>
                </g>
                <g transform="matrix(36,0,0,36,99.72,27)">
                    <path d="M0.181,0L0.291,0L0.291,-0.75L0.191,-0.75L0.021,-0.615L0.021,-0.545L0.091,-0.545L0.181,-0.62L0.181,0Z" style="fill-rule:nonzero;"/>
                </g>
                <g transform="matrix(36,0,0,36,113.976,27)">
                    <path d="M0.324,0.01C0.487,0.01 0.586,-0.113 0.586,-0.264L0.586,-0.486C0.586,-0.638 0.49,-0.761 0.324,-0.76C0.161,-0.76 0.062,-0.638 0.062,-0.486L0.062,-0.264C0.062,-0.113 0.158,0.01 0.324,0.01ZM0.324,-0.08C0.223,-0.08 0.172,-0.163 0.172,-0.264L0.172,-0.486C0.172,-0.588 0.226,-0.67 0.324,-0.67C0.425,-0.67 0.476,-0.588 0.476,-0.486L0.476,-0.264C0.476,-0.163 0.422,-0.08 0.324,-0.08Z" style="fill-rule:nonzero;"/>
                </g>
                <g transform="matrix(36,0,0,36,136.584,27)">
                    <rect x="0.066" y="-0.12" width="0.12" height="0.12" style="fill-rule:nonzero;"/>
                </g>
                <g transform="matrix(36,0,0,36,144.936,27)">
                    <path d="M0.324,0.01C0.487,0.01 0.586,-0.113 0.586,-0.264L0.586,-0.486C0.586,-0.638 0.49,-0.761 0.324,-0.76C0.161,-0.76 0.062,-0.638 0.062,-0.486L0.062,-0.264C0.062,-0.113 0.158,0.01 0.324,0.01ZM0.324,-0.08C0.223,-0.08 0.172,-0.163 0.172,-0.264L0.172,-0.486C0.172,-0.588 0.226,-0.67 0.324,-0.67C0.425,-0.67 0.476,-0.588 0.476,-0.486L0.476,-0.264C0.476,-0.163 0.422,-0.08 0.324,-0.08Z" style="fill-rule:nonzero;"/>
                </g>
                <g transform="matrix(36,0,0,36,168.264,27)">
                    <path d="M0.575,-0.17L0.575,-0.259L0.474,-0.259L0.474,-0.75L0.379,-0.75L0.021,-0.247L0.021,-0.17L0.364,-0.17L0.364,0.01L0.474,0.01L0.474,-0.17L0.575,-0.17ZM0.364,-0.259L0.132,-0.259L0.364,-0.589L0.364,-0.259Z" style="fill-rule:nonzero;"/>
                </g>
                <g transform="matrix(36,0,0,36,190.332,27)">
                    <rect x="0.066" y="-0.12" width="0.12" height="0.12" style="fill-rule:nonzero;"/>
                </g>
                <g transform="matrix(36,0,0,36,199.404,27)">
                    <path d="M0.506,0L0.506,-0.1L0.193,-0.1L0.343,-0.27C0.432,-0.371 0.485,-0.445 0.485,-0.558C0.485,-0.681 0.396,-0.76 0.264,-0.76C0.091,-0.76 0.05,-0.619 0.05,-0.619L0.05,-0.549L0.13,-0.549C0.13,-0.549 0.146,-0.67 0.259,-0.67C0.322,-0.67 0.377,-0.631 0.377,-0.557C0.377,-0.472 0.328,-0.396 0.265,-0.326L0.055,-0.09L0.055,0L0.506,0Z" style="fill-rule:nonzero;"/>
                </g>
                <g transform="matrix(36,0,0,36,219.276,27)">
                    <path d="M0.324,0.01C0.487,0.01 0.586,-0.113 0.586,-0.264L0.586,-0.486C0.586,-0.638 0.49,-0.761 0.324,-0.76C0.161,-0.76 0.062,-0.638 0.062,-0.486L0.062,-0.264C0.062,-0.113 0.158,0.01 0.324,0.01ZM0.324,-0.08C0.223,-0.08 0.172,-0.163 0.172,-0.264L0.172,-0.486C0.172,-0.588 0.226,-0.67 0.324,-0.67C0.425,-0.67 0.476,-0.588 0.476,-0.486L0.476,-0.264C0.476,-0.163 0.422,-0.08 0.324,-0.08Z" style="fill-rule:nonzero;"/>
                </g>
                <g transform="matrix(36,0,0,36,242.604,27)">
                    <path d="M0.506,0L0.506,-0.1L0.193,-0.1L0.343,-0.27C0.432,-0.371 0.485,-0.445 0.485,-0.558C0.485,-0.681 0.396,-0.76 0.264,-0.76C0.091,-0.76 0.05,-0.619 0.05,-0.619L0.05,-0.549L0.13,-0.549C0.13,-0.549 0.146,-0.67 0.259,-0.67C0.322,-0.67 0.377,-0.631 0.377,-0.557C0.377,-0.472 0.328,-0.396 0.265,-0.326L0.055,-0.09L0.055,0L0.506,0Z" style="fill-rule:nonzero;"/>
                </g>
                <g transform="matrix(36,0,0,36,262.476,27)">
                    <path d="M0.324,0.01C0.487,0.01 0.586,-0.113 0.586,-0.264L0.586,-0.486C0.586,-0.638 0.49,-0.761 0.324,-0.76C0.161,-0.76 0.062,-0.638 0.062,-0.486L0.062,-0.264C0.062,-0.113 0.158,0.01 0.324,0.01ZM0.324,-0.08C0.223,-0.08 0.172,-0.163 0.172,-0.264L0.172,-0.486C0.172,-0.588 0.226,-0.67 0.324,-0.67C0.425,-0.67 0.476,-0.588 0.476,-0.486L0.476,-0.264C0.476,-0.163 0.422,-0.08 0.324,-0.08Z" style="fill-rule:nonzero;"/>
                </g>
            </g>
        </g>
    </g>
</svg>
